<?xml version="1.0" encoding="utf-8"?>
<!-- Generator: Adobe Illustrator 27.5.0, SVG Export Plug-In . SVG Version: 6.00 Build 0)  -->
<svg version="1.1" xmlns="http://www.w3.org/2000/svg" xmlns:xlink="http://www.w3.org/1999/xlink" x="0px" y="0px"
	 viewBox="0 0 500 500" style="enable-background:new 0 0 500 500;" xml:space="preserve">
<g id="BACKGROUND">
	<rect style="fill:#FFFFFF;stroke:#000000;stroke-miterlimit:10;" width="500" height="500"/>
</g>
<g id="OBJECTS">
	<g>
		<path id="XMLID_3367_" style="fill:#366ED8;" d="M111.11,365.504l328.815,41.787v-16.447
			C435.392,386.276,111.11,365.504,111.11,365.504z"/>
		<path id="XMLID_3423_" style="fill:#F2F3F3;" d="M125.242,368.687H423.94v-97.26c0,0-12.563-145.949-153.942-145.949
			c-138.186,0-145.471,136.914-145.471,136.914L125.242,368.687z"/>
		<path id="XMLID_3436_" style="fill:#366ED8;" d="M439.925,390.844v-23.026c-0.393,0-0.873,0.002-1.726,0.002l-328.325-8.041
			c-1.929,0-2.114,4.658-0.201,4.91L439.925,390.844z"/>
		<g id="XMLID_3375_">
			<polygon id="XMLID_3401_" style="fill:#545152;" points="230.463,207.837 227.343,207.837 225.807,201.26 228.927,201.26 			"/>
			<path id="XMLID_2483_" style="fill:#272525;" d="M215.63,265.09l-6.529-45.572c0,0-0.679-6.981,6.529-9.985
				c6.145-2.56,35.811-6.017,43.524-4.864c7.361,1.1,11.265,3.072,11.137,7.553c-0.118,4.127,3.2,46.98,3.2,46.98L215.63,265.09z"/>
			<path id="XMLID_3358_" style="fill:#272525;" d="M217.07,189.403l2.304,11.809c0,0,0.288,2.112,3.648,1.824
				c3.36-0.288,23.714-1.344,24.002-1.824c0.288-0.48-0.576-15.649-0.576-15.649l-26.69,0.768
				C219.758,186.331,216.782,186.715,217.07,189.403z"/>
			<path id="XMLID_3372_" style="fill:#F3A953;" d="M256.113,206.925c0,0-0.158-0.21-0.579-0.973
				c-0.366-0.664-1.269-0.764-2.157-0.868c-3.312-0.389-7.766-0.142-8.04-0.096c-0.143,0.024-3.681,0.953-7.452,0.912
				c-2.42-0.026-2.811,2.059-2.867,2.078c-6.155,2.157-13.318,5.076-13.318,5.076s-3.016,0-3.717,2.525
				c-0.363,1.305-0.982,3.086-0.982,3.086l-5.962,26.794c0,0,10.249,2.38,18.362,0.812c0.701,0.491-0.195,15.811-0.195,15.811
				l44.526-3.52l-0.688-19.714c0,0,11.643-4.682,11.713-5.664c0.07-0.982-9.329-20.06-9.399-20.341
				c-0.07-0.281-1.403-2.034-2.525-2.385C271.71,210.108,256.113,206.925,256.113,206.925z"/>
			<path id="XMLID_3477_" style="fill:#B67F3E;" d="M284.269,233.184c0.07-0.982-9.329-20.06-9.399-20.341
				c-0.07-0.281-1.403-2.034-2.525-2.385c-0.694-0.217-6.931-1.518-11.586-2.479c-0.528,0.143-1.033,0.345-1.485,0.658
				c-3.156,2.185-3.356,6.875-3.376,10.312c-0.035,6.046,0.431,12.163-0.839,18.129c-1.256,5.898-4.617,10.661-9.438,14.221
				c-3.97,2.931-7.412,6.206-9.991,10.236l37.614-2.974l-0.688-19.714C272.556,238.848,284.199,234.166,284.269,233.184z"/>
			<path id="XMLID_3363_" style="fill:#3A3326;" d="M257.424,173.671c0,0,2.597,2.176,2.667,2.708c0.07,0.532-2.62,2.146-2.72,6.787
				c-0.018,0.839-2.463,3.782-3.405-0.287c-0.943-4.069-2.248-5.052-1.941-7.299c0.307-2.247,0.548-3.496,1.454-3.647
				C254.386,171.782,257.424,173.671,257.424,173.671z"/>
			<path id="XMLID_2482_" style="fill:#BB8574;" d="M256.446,177.35l0.925,5.815l-0.712,3.045l0.768,2.818
				c0.089,0.332,0.009,1.159-0.037,1.431l-1.987,11.282c0,0-0.809,3.057-5.038,2.829c-3.265-0.176-7.925-2.69-9.464-4.734
				c-1.539-2.044-3.856-7.736-3.856-7.736l1.513-16.226c0,0,6.932-2.417,12.804-2.027
				C257.235,174.238,256.446,177.35,256.446,177.35z"/>
			<path id="XMLID_2512_" style="fill:#BB8574;" d="M237.622,192.643c1.263,5.734,0.912,12.625-0.281,14.94
				c0,0,4.378,6.997,12.485,4.98c3.525-0.877,4.629-4.068,4.138-5.751c-0.491-1.683-2.736-6.313-2.736-6.313L237.622,192.643z"/>
			<path id="XMLID_2521_" style="fill:#BB8574;" d="M237.573,186.799c0,0-1.103-2.446-2.748-2.291
				c-1.645,0.155-2.526,2.31-2.361,3.798c0.165,1.487,1.817,3.6,2.402,4.324c0.585,0.724,1.169,1.448,2.579,0.856
				C238.856,192.895,237.573,186.799,237.573,186.799z"/>
			<path id="XMLID_3360_" style="fill:#3A3326;" d="M236.774,185.587c0.058,0.055,0.104,0.117,0.147,0.184
				c0.261,0.405,1.238,1.926,1.458,2.374c0.256,0.518,0.588,0.119,0.6-0.303c0.039-1.322-0.238-4.764,1.583-5.75
				c0.281-0.152,0.502-0.393,0.582-0.701c0.311-1.192,0.354-3.84,0.279-3.97c-0.079-0.137-1.841-1.897-2.646-2.415
				c-0.157-0.101-0.287-2.448-0.373-2.614c-0.35-0.674-1.505-0.291-3.535,0.31c-1.28,0.379-1.964,1.195-2.387,1.858
				c-0.121,0.19-0.057,0.503,0.3,0.991c0.562,0.768,1.203,1.732,1.389,2.904c0.155,0.975,0.41,4.088,0.575,5.427
				c0.046,0.374,0.282,0.697,0.626,0.851C235.81,184.928,236.408,185.235,236.774,185.587z"/>
			<path id="XMLID_2505_" style="fill:#3A3326;" d="M236.264,172.355c0,0,2.079-5.907,9.83-6.711
				c7.751-0.804,11.181,1.533,13.421,5.108c2.241,3.575-1.591,2.53-4.996,3.781c-1.685,0.619-0.486,0.97-5.234,1.814
				c-4.793,0.853-7.86,1.13-7.86,1.13S236.167,174.615,236.264,172.355z"/>
			<path id="XMLID_3412_" style="fill:#3A3326;" d="M246.354,185.785c0,0.634-0.514,1.147-1.147,1.147s-1.147-0.514-1.147-1.147
				c0-0.634,0.514-1.147,1.147-1.147S246.354,185.151,246.354,185.785z"/>
			<path id="XMLID_3432_" style="fill:#3A3326;" d="M252.958,196.802c-1.039,0.173-2.041,0.315-3.099,0.259
				c-0.925-0.049-1.618-0.347-2.457-0.672c-0.164-0.063-0.358,0.132-0.295,0.295c0.785,2.047,4.636,1.507,6.023,0.526
				C253.34,197.06,253.21,196.76,252.958,196.802L252.958,196.802z"/>
			<path id="XMLID_3433_" style="fill:#3A3326;" d="M234.655,187.482c0.193-1.047,1.307-1.631,2.26-1.148
				c0.45,0.228,0.76,0.606,0.881,1.092c0.176,0.704-0.149,1.011-0.55,1.533c-0.446,0.58-0.73,1.452,0.085,1.872
				c0.433,0.223,0.807-0.405,0.383-0.656c-0.494-0.292,0.546-1.252,0.698-1.524c0.212-0.38,0.302-0.782,0.227-1.214
				c-0.13-0.747-0.673-1.415-1.337-1.766c-1.359-0.718-3.041,0.181-2.978,1.766C234.332,187.617,234.619,187.677,234.655,187.482
				L234.655,187.482z"/>
			<path id="XMLID_3405_" style="fill:#996559;" d="M242.299,201.874c-0.076-0.217,0.209-0.377,0.353-0.197
				c0.658,0.819,1.653,1.896,2.58,2.255c1.568,0.608,5.184,0.864,6.721,0.512c0,0-0.416,1.472-2.368,1.984
				c-1.895,0.497-4.288,0.608-5.729-1.248C243.253,204.403,242.669,202.926,242.299,201.874z"/>
			<path id="XMLID_3455_" style="fill:#B67F3E;" d="M228.654,262.214l33.047-2.663c-0.576-0.151-0.945-0.23-0.945-0.23
				s-12.548,0.122-13.889-6.944c-1.34-7.066-10.234-6.822-11.817-9.015c-1.584-2.193-2.193-7.066-2.071-8.163
				c0.122-1.096-1.462-2.68-1.584-0.365c-0.122,2.315-1.667,11.452-1.667,11.452C230.429,246.776,228.654,262.214,228.654,262.214z"
				/>
			<path id="XMLID_2481_" style="fill:#996559;" d="M241.918,182.645c0,0,3.487,0.959,4.751,1.797
				c1.264,0.838,2.619-0.624,2.619-0.624s-2.067-1.424-2.147-1.462C246.06,181.838,241.918,182.645,241.918,182.645z"/>
			<path id="XMLID_3382_" style="fill:#3A3326;" d="M241.666,182.681c2.754-0.278,4.933-0.463,6.821,1.15
				c0.749,0.64,1.598-0.842,1.356-1.068c-1.009-0.946-2.92-1.419-4.153-1.506c-1.208-0.085-2.882,0.266-4.104,1.016
				C241.452,182.357,241.47,182.636,241.666,182.681L241.666,182.681z"/>
			<path id="XMLID_3350_" style="fill:#996559;" d="M253.172,184.533c0,0,0.548-0.411,0.579-0.609
				c0.031-0.198,2.406-0.944,2.802-0.731c0.396,0.213,0.259,0.822,0.061,1.005c-0.198,0.183-1.203,0.898-1.264,1.584
				c-0.061,0.685-2.574,0.67-2.497,0.32C252.929,185.751,253.172,184.533,253.172,184.533z"/>
			<path id="XMLID_3378_" style="fill:#3A3326;" d="M257.385,183.176c-0.096-0.621-0.879-0.885-1.439-0.965
				c-1.023-0.146-1.993,0.213-2.812,0.771c-0.117,0.079,0.258,1.422,0.995,1.076c0.574-0.27,1.724-1.23,2.982-0.602
				C257.342,183.571,257.421,183.407,257.385,183.176L257.385,183.176z"/>
			<path id="XMLID_3434_" style="fill:#3A3326;" d="M252.865,184.509c-0.69,1.124-0.58,2.364-0.059,3.544
				c0.281,0.638,0.685,1.207,0.978,1.838c0.363,0.783,0.688,1.703-0.187,2.264c-0.579,0.371-1.303,0.371-1.963,0.407
				c-0.317,0.017-0.424,0.512-0.079,0.583c1.331,0.274,3.334-0.329,3.383-1.966c0.026-0.855-0.475-1.768-0.862-2.511
				c-0.739-1.417-1.014-2.465-0.864-4.066C253.229,184.411,252.955,184.363,252.865,184.509L252.865,184.509z"/>
			<path id="XMLID_3413_" style="fill:#3A3326;" d="M255.411,186.105c0,0.634-0.514,1.147-1.147,1.147
				c-0.634,0-1.147-0.514-1.147-1.147c0-0.634,0.514-1.147,1.147-1.147C254.897,184.957,255.411,185.471,255.411,186.105z"/>
		</g>
		<g id="XMLID_2475_">
			<path id="XMLID_2461_" style="fill:#4E352D;" d="M383.072,175.411c0.64-3.335-1.606-6.918-2.483-9.871
				c-0.814-2.74-0.166-5.815-1.515-8.363c-0.307-0.58-1.302-0.614-1.387,0.161c-0.17,1.548-0.319,3.104-0.496,4.655
				c-0.035-0.312-0.082-0.622-0.159-0.932c-0.105-0.422-0.763-0.376-0.693,0.08c0.454,2.966-1.29,6.046-1.733,8.972
				c-0.059,0.392-0.104,0.789-0.14,1.188c-0.547,1.218-0.979,2.474-1.036,3.834c-0.128,3.04,1.095,7.285,4.345,8.277
				c0.08,0.024,0.106-0.091,0.033-0.121c-3.506-1.471-4.552-6.78-3.566-10.069c0.044-0.145,0.095-0.291,0.146-0.436
				c-0.009,1.459,0.176,2.919,0.65,4.293c0.757,2.194,2.495,4.778,4.231,6.304c1.006,0.885,2.233,0.933,3.415,0.335
				C386.38,181.847,382.43,178.757,383.072,175.411z"/>
			<path id="XMLID_2519_" style="fill:#4E352D;" d="M392.908,173.218c0.196-2.027,0.466-4.058,1.056-6.008
				c0.626-2.071,1.606-4.025,2.18-6.111c0.785-2.856,0.807-5.942,2.095-8.609c0.267-0.552,0.647-1.127,1.243-1.271
				c0.375-0.09,0.767,0.01,1.133,0.13c0.959,0.315,0.854,0.266,1.679,0.849c0,0,3.679,7.928,3.434,14.922
				c-0.072,2.064-0.34,4.003-0.259,6.067c0.381,9.663,10.306,11.761,11.998,14.727c1.641,2.876,1.114,5.137-1.456,6.819
				c-0.733,0.48-1.776-0.428-1.128-1.158c1.469-1.654,0.691-3.857-0.965-5.046c-0.047-0.034-0.097-0.054-0.145-0.085
				c-2.687,0.987-6.407,1.442-9.033,1.083c-4.279-0.585-8.658-2.625-10.675-6.444C392.495,180.112,392.585,176.563,392.908,173.218z
				"/>
			<g id="XMLID_2514_">
				<path style="fill:#DC8A7A;" d="M390.068,167.395c1.286,0.299,2.572,0.599,3.858,0.898c0.319,0.074,0.669,0.169,0.851,0.442
					c0.108,0.162,0.137,0.363,0.158,0.557c0.243,2.299-0.397,4.589-0.609,6.891c-0.212,2.302,0.126,4.885,1.862,6.411
					c1.856,1.632,4.725,1.558,6.718,3.02c2.103,1.542,2.727,4.383,2.956,6.981c0.136,1.541,0.187,3.105-0.113,4.623
					c-0.761,3.844-1.829,13.482-5.332,15.239c-3.502,1.757-9.4-4.194-13.312-3.979c-5.245,0.288-10.542,0.007-15.668-1.142
					c-1.048-0.235-2.162-0.552-2.837-1.387c-0.886-1.096-0.714-2.672-0.541-4.07c0.626-5.046,0.67-10.165,0.131-15.221
					c-0.106-0.997-0.165-2.18,0.615-2.812c0.361-0.293,0.835-0.398,1.289-0.494c2.224-0.472,4.447-0.944,6.671-1.416
					c1.898-0.403,2.577-0.664,4.065-1.91c1.493-1.25,1.984-2.495,2.193-4.432c0.209-1.937,0.084-5.506-0.366-7.401L390.068,167.395z
					"/>
			</g>
			<path id="XMLID_2474_" style="fill:#BA6355;" d="M384.26,173.812c0.228,0.183,9.503,0,9.503,0s-1.188,4.888-4.843,4.888
				C384.214,178.701,384.26,173.812,384.26,173.812z"/>
			<g id="XMLID_2515_">
				<path style="fill:#DC8A7A;" d="M379.86,161.734c0.258-1.906-0.254-4.884-0.01-6.792c1.005-7.862,8.804-7.571,12.267-7.295
					c0.815,0.065,1.81,0.271,2.073,1.103l0.115-0.252c2.943,4.822,5.09,10.521,4.305,16.187c-0.874,6.306-3.091,9.295-6.556,11.738
					c-1.054,0.743-1.954,0.656-3.594,0.515c-1.446-0.124-3.505-0.24-6.774-6.509C380.254,167.681,379.693,162.967,379.86,161.734z"
					/>
			</g>
			<path id="XMLID_2509_" style="fill:#4E352D;" d="M375.183,166.288c1.139-2.568-0.552-5.995-0.509-7.723
				c0.047-1.891,0.364-3.808,1.175-5.53c1.297-2.751,1.779-5.582,6.987-5.131c0.919,0.08,0.196,0.027,0.272,0.077
				c0.095-0.172,0.181-0.353,0.248-0.554c0.095-0.286,0.602-0.219,0.6,0.09c-0.013,1.622,2.852,1.855,1.477,2.495
				c-3.621,1.686-3.205,5.6-4.828,9.881c-1.275,3.363-1.912,6.317-5.523,7.677C374.128,167.929,374.758,167.246,375.183,166.288z"/>
			<path id="XMLID_2492_" style="fill:#4E352D;" d="M411.279,190.172c-1.818-2.061-3.128-4.507-3.637-7.221
				c-0.548-2.924,0.033-5.923,0.104-8.866c0.06-2.464-0.157-4.89-0.742-7.285c-0.333-1.363-0.749-2.78-1.376-4.072
				c-0.09-0.858-0.22-1.707-0.382-2.533c-0.003-0.019,0.003-0.033-0.002-0.053c-0.015-0.066-0.035-0.13-0.05-0.196l0,0
				c0,0,0-0.001,0-0.001c-0.003-0.013-0.007-0.025-0.01-0.038c-0.065-0.318-0.129-0.637-0.203-0.947
				c-1.211-5.063-3.958-10.42-8.391-13.259c-3.244-2.973-8.069-3.91-12.269-0.813c-2.215,1.634-3.363,3.985-1.408,5.496
				c0.041,0.089,0.102,0.177,0.204,0.254c1.454,1.098,3.065,0.986,4.731,1.567c1.4,0.488,2.59,1.517,3.753,2.399
				c1.738,1.317,3.524,2.714,5.737,2.64c1.081,2.127,1.029,4.784,1.522,7.067c0.568,2.634,1.846,4.868,1.359,7.524
				c-0.449,2.442-1.615,4.627-2.039,7.079c-0.065,0.378,0.454,0.609,0.686,0.3c2.167-2.881,5.063-5.029,6.166-8.597
				c0.602-1.948,0.797-4.064,0.717-6.171c0.393,1.076,0.684,2.193,0.923,3.289c0.601,2.745,0.64,5.513,0.484,8.309
				c-0.152,2.723-0.431,5.379,0.336,8.041c0.676,2.347,1.919,4.5,3.681,6.195C411.243,190.344,411.342,190.243,411.279,190.172z
				 M391.112,152.71c-0.134-0.105-0.272-0.21-0.409-0.315c0.081,0.014,0.16,0.024,0.241,0.039c2.428,0.446,4.282,1.851,5.809,3.641
				c0.126,0.257,0.254,0.514,0.383,0.77C394.833,156.212,392.922,154.124,391.112,152.71z"/>
			<g id="XMLID_2439_">
				<path id="XMLID_2499_" style="fill:#4E352D;" d="M385.748,161.217c0.006-0.018-0.354-0.177-1.044-0.265
					c-0.061-0.048-0.561-0.397-0.62-0.518c-0.082-0.167-0.174-0.132-0.165,0.051c0.008,0.156,0.059,0.304,0.143,0.434
					c-0.03,0.002-0.06,0.003-0.09,0.005c-0.08-0.018-0.676-0.064-0.939-0.465c-0.099-0.151-0.174-0.039-0.129,0.109
					c0.039,0.131,0.226,0.336,0.31,0.44c-0.191-0.019-0.553-0.073-0.754-0.128c-0.139-0.039-0.208,0.056-0.085,0.16
					c0.42,0.357,0.83,0.559,1.394,0.568c0.157,0.003,0.329-0.026,0.507-0.065c-0.076,0.12-0.129,0.257-0.15,0.407
					c-0.075,0.558,0.44,0.837,1.002,0.815c0.546-0.021,0.763-0.333,1.018-0.545C386.663,161.788,386.294,161.477,385.748,161.217z"
					/>
				<path id="XMLID_2464_" style="fill:#4E352D;" d="M392.103,161.326c-0.006-0.018,0.354-0.177,1.044-0.265
					c0.062-0.048,0.561-0.397,0.62-0.517c0.082-0.167,0.174-0.132,0.165,0.051c-0.008,0.156-0.059,0.304-0.143,0.434
					c0.03,0.002,0.06,0.003,0.09,0.005c0.08-0.018,0.676-0.064,0.939-0.465c0.099-0.151,0.174-0.039,0.129,0.109
					c-0.039,0.131-0.226,0.336-0.309,0.44c0.191-0.019,0.553-0.073,0.753-0.128c0.139-0.039,0.208,0.056,0.085,0.16
					c-0.42,0.357-0.83,0.559-1.394,0.568c-0.157,0.002-0.329-0.026-0.507-0.065c0.076,0.12,0.129,0.257,0.15,0.407
					c0.075,0.558-0.44,0.837-1.002,0.815c-0.546-0.021-0.763-0.333-1.018-0.545C391.187,161.897,391.556,161.587,392.103,161.326z"
					/>
				<path id="XMLID_2497_" style="fill:#4E352D;" d="M396.933,159.342c-1.635-0.428-3.359-0.111-4.909,0.593
					c-0.29,0.132-1.059-0.812-0.857-0.921c1.86-1.01,4.13-1.053,5.892,0.055C397.278,159.207,396.933,159.342,396.933,159.342z"/>
				<path id="XMLID_2495_" style="fill:#4E352D;" d="M389.828,164.954c0.058,0.509,0.423,1.361,0.287,1.853
					c-0.234,0.852-1.423,0.605-2.113,0.532c-0.192-0.02-0.296,0.251-0.105,0.335c0.735,0.322,2.258,0.359,2.623-0.489
					C390.679,166.813,390.306,165.213,389.828,164.954z"/>
				<path id="XMLID_2484_" style="fill:#4E352D;" d="M386.61,170.912c1.314,1.296,4.092,1.402,5.146-0.441
					c0.07-0.122-0.051-0.286-0.131-0.171c-0.572,0.823-1.797,0.993-2.556,1.011c-0.863,0.021-1.592-0.325-2.423-0.528
					C386.586,170.768,386.563,170.866,386.61,170.912L386.61,170.912z"/>
				<path id="XMLID_2466_" style="fill:#4E352D;" d="M380.964,159.053c1.776-0.428,3.647-0.111,5.331,0.593
					c0.315,0.132,1.149-0.811,0.931-0.921c-2.019-1.01-4.484-1.053-6.398,0.055C380.589,158.918,380.964,159.053,380.964,159.053z"
					/>
			</g>
			<path id="XMLID_2494_" style="fill:#BA6355;" d="M377.468,182.264c0.183,0.365,6.64,14.924,7.371,14.985
				c0.731,0.061,5.543-4.142,5.543-3.898c0,0.244-2.254,9.807-3.533,9.868s0.122,7.249-4.264-0.487s-5.117-11.33-5.117-11.574
				C377.468,190.914,377.468,182.264,377.468,182.264z"/>
			<path id="XMLID_3376_" style="fill:#366ED8;" d="M366.919,245.143l-0.159,3.944c0,0-0.621,0.853-0.621,1.34
				c0,0.487-2.486,20.102-2.486,20.102s13.178,20.833,30.21,16.325c17.032-4.508,14.918-4.66,14.918-4.66s-0.379-5.957,0.839-12.152
				c1.958-9.959,3.543-16.264-1.212-24.579C405.092,239.664,366.919,245.143,366.919,245.143z"/>
			<g id="XMLID_2432_">
				<path style="fill:#F3A953;" d="M406.552,227.371c0.518,9.594,3.99,15.807,2.833,18.822c-0.879,2.29-39.107,3.076-43.127-1.127
					c-0.41-0.428,2.558-7.797,1.828-17.543c-0.043-0.575,0.518-0.854,0.996-1.177c0.289-0.195,0.659-0.213,1.008-0.224
					c3.121-0.099,6.246-0.197,9.364-0.025c3.578,0.197,7.089,1.525,10.666,1.302C390.562,227.371,406.552,227.371,406.552,227.371z"
					/>
			</g>
			<path id="XMLID_2486_" style="fill:#B67F3E;" d="M369.092,231.331c0,0-0.366,3.381,5.574,2.558
				c5.939-0.822,11.787-2.65,15.442-1.096c3.655,1.553,6.396,3.015,9.96,2.467c3.564-0.548,6.396-4.934,6.396-4.934
				s-7.584-2.558-11.878-2.833C390.29,227.219,369.092,231.331,369.092,231.331z"/>
			<g id="XMLID_2516_">
				<path style="fill:#DC8A7A;" d="M372.082,183.178c-2.556,0.264-5.111,0.528-7.667,0.792c-1.128,0.117-2.308,0.251-3.248,0.886
					c-1.177,0.794-1.748,2.212-2.174,3.566c-0.742,2.361-1.242,4.797-1.491,7.259c-0.257,2.544-0.246,5.116-0.671,7.637
					c-0.348,2.066-0.541,5.254-0.947,7.31c-1.039,5.257-0.99,9.511-0.215,14.813c0.146,1,0.329,2.058,0.993,2.819
					c0.687,0.787,1.754,1.104,2.765,1.367c11.979,3.121,19.66,1.638,31.925-0.034c1.115-0.152,1.29-2.658-0.551-3.349
					c-8.059-3.021-13.093-3.613-20.26-8.377c-0.472-0.314-0.948-0.643-1.288-1.097c-0.393-0.526-0.573-1.177-0.72-1.816
					c-2.298-9.951,1.25-20.254,1.348-30.466"/>
			</g>
			<g id="XMLID_2513_">
				<path style="fill:#F3A953;" d="M368.771,196.447c0.103-0.303,0.219-0.617,0.457-0.831c0.544-0.492,1.424-0.226,2.025,0.194
					c0.854,0.597,1.504,1.435,2.246,2.166c1.813,1.787,4.183,2.936,6.643,3.591c2.46,0.655,5.02,0.84,7.565,0.904
					c5.37,0.134,11.008-0.342,15.545-3.216l-0.077,0.073c0.835,0.583,1.27,1.611,1.37,2.625c0.1,1.013,0.129,2.167-0.062,3.167
					c-0.733,3.82-1.688,7.504-2.421,11.324c-0.109,0.566-0.229,1.158-0.593,1.606c-0.365,0.448-0.924,0.687-1.471,0.876
					c-2.12,0.733-4.378,0.967-6.616,1.118c-6.432,0.433-12.959,0.208-19.212-1.359c-1.999-0.501-4.109-1.239-5.293-2.926
					c-0.665-0.948-0.964-2.1-1.186-3.236C366.645,207.192,367.021,201.589,368.771,196.447z"/>
			</g>
			<path id="XMLID_2503_" style="fill:#353A42;" d="M383.02,142.879c0.099-0.121,0.197-0.242,0.295-0.363
				c0.008-0.01-0.006-0.024-0.014-0.014c-0.096,0.124-0.192,0.248-0.287,0.372C383.01,142.877,383.017,142.883,383.02,142.879
				L383.02,142.879z"/>
			<path id="XMLID_3369_" style="fill:#353A42;" d="M378.491,177.606c-0.024,0.03-0.047,0.06-0.071,0.09
				c-0.016,0.02,0.012,0.048,0.028,0.028c0.024-0.03,0.047-0.06,0.071-0.09C378.536,177.614,378.507,177.586,378.491,177.606
				L378.491,177.606z"/>
			<g id="XMLID_3532_">
				<path style="fill:#BA6355;" d="M390.558,226.245c-8.059-3.021-13.093-3.613-20.26-8.377c-0.472-0.314-0.948-0.643-1.288-1.097
					c-0.393-0.525-0.573-1.177-0.721-1.816c-0.548-2.373-0.761-4.767-0.77-7.174c-0.18,0.081-0.285,0.128-0.285,0.128
					c0,0.114-0.472,1.006-1.07,2.344c0.218,1.963-0.135,4.099-0.856,5.833c-0.63,1.516-1.238,2.883-0.851,4.559
					c0.473,2.051,2.14,2.801,4.043,3.137c3.087,0.546,6.567,0.899,9.456,2.203c1.481,0.669,7.629,1.553,12.517,3.696
					c0.212-0.029,0.422-0.058,0.636-0.087C392.224,229.442,392.399,226.936,390.558,226.245z"/>
			</g>
			<g id="XMLID_2511_">
				<path style="fill:#DC8A7A;" d="M403.209,186.536c2.222,0.513,4.444,1.027,6.666,1.54c2.23,0.515,4.605,1.113,6.146,2.805
					c2.223,2.442,1.917,6.189,1.474,9.462c-0.589,4.346-1.178,8.692-1.766,13.038c-0.263,1.937-0.529,3.892-1.193,5.731
					c-0.576,1.596-1.438,3.07-2.295,4.534c-0.997,1.703-1.994,3.405-2.991,5.108c-0.454,0.775-0.933,1.577-1.678,2.079
					c-0.658,0.442-1.431,0.91-2.215,1.029c-5.469,0.827-11.226-0.458-16.108-3.06c-1.328-0.708-2.593-1.53-3.907-2.263
					c-1.552-0.866-3.17-1.606-4.786-2.346c-3.332-1.525-5.664-3.733-8.997-5.258c-0.846-0.387-1.827-1.077-2.376-1.827
					c-0.549-0.751-1.703-2.346-0.975-2.924c2.802-0.975,8.163-0.061,9.624,1.584c0.09,0.101,5.271,0.616,7.583,0.747
					c4.888,0.279,9.792,0.558,14.676,0.21c0.371-0.026,0.764-0.065,1.057-0.294c0.283-0.222,0.416-0.58,0.534-0.92
					c2.723-7.891,3.923-16.305,3.513-24.643"/>
			</g>
			<path id="XMLID_2449_" style="fill:#F3A953;" d="M377.234,181.686c0,0,6.396,18.457,7.31,18.274
				c0.914-0.183,13.432-16.264,13.432-16.264l11.97,3.655c0,0,6.487,0.914,7.584,5.574c0.609,2.59,1.266,12.152,1.906,14.619
				c0.64,2.467-16.799,5.666-16.799,5.666l-28.051-2.193l-7.401-1.096c0,0-12.609-3.838-12.244-4.934
				c0.365-1.096,3.289-18.548,5.3-20.01c2.01-1.462,12.518-2.284,12.518-2.284l4.294-2.284L377.234,181.686z"/>
			<path id="XMLID_2469_" style="fill:#4E352D;" d="M401.345,188.159c0.759,1.498,1.256,4.249,0.457,5.81
				c-0.145,0.284,0.282,0.526,0.469,0.283c1.417-1.844,1.117-5.272-0.016-7.223c-0.305-0.525-0.697-0.932-1.126-1.299
				c0.815,0.64,1.567,1.353,2.106,2.301c0.631,1.108,0.981,2.376,1.09,3.692c-0.009,0.538-0.001,1.073,0.012,1.605
				c-0.209,3.28-1.827,6.576-4.43,8.234c-0.395,0.252,0.054,0.865,0.441,0.587c1.288-0.924,2.366-2.02,3.22-3.244
				c-0.394,1.146-0.902,2.253-1.532,3.294c-0.067,0.111-0.055,0.227-0.002,0.314c0.012,0.149,0.104,0.289,0.272,0.296
				c5.155,0.199,7.351-5.249,7.542-9.74c0.243-5.722-2.416-10.448-7.042-13.823c-0.55-0.402-1.333,0.296-0.876,0.854
				c1.083,1.324,2.206,2.456,3.217,3.602c-0.359,0.087-0.668,0.407-0.619,0.78c-0.019-0.018-0.041-0.032-0.06-0.05
				c-0.119-0.191-0.238-0.383-0.358-0.572c-0.186-0.293-0.457-0.356-0.701-0.282c-1.046-0.74-2.218-1.284-3.5-1.547
				c-0.405-0.083-0.751,0.243-0.826,0.612c-0.293-0.225-0.568-0.469-0.828-0.73c-0.031-0.123-0.064-0.245-0.083-0.373
				c-0.083-0.388-0.389-0.575-0.703-0.606c-0.106-0.162-0.223-0.312-0.314-0.491c-0.246-0.48-0.946-0.204-0.779,0.315
				c0.03,0.091,0.068,0.173,0.101,0.261c-0.335-0.719-0.583-1.499-0.736-2.358c-0.164-0.919-1.575-0.77-1.451,0.168
				c0.318,2.405,1.438,4.572,3.34,6.105C398.934,185.981,400.541,186.572,401.345,188.159z"/>
			<path id="XMLID_2488_" style="fill:#BA6355;" d="M402.635,213.209c0,0,8.396,0.061,10.224,1.218c0,0,0.914,0.609,1.584-1.218
				c0.67-1.827,0.914-2.985,0.914-2.985L402.635,213.209z"/>
			<path id="XMLID_2490_" style="fill:#BA6355;" d="M366.077,212.965c0,0,0.061-2.437-2.924-2.924
				c-2.985-0.487-4.873-1.097-4.873-1.097l0.244-1.949l8.467,2.985C366.991,209.98,367.478,213.635,366.077,212.965z"/>
		</g>
		<rect id="XMLID_3416_" x="414.708" y="298.214" style="fill:#B7B7B7;" width="9.868" height="70.953"/>
		<rect id="XMLID_3424_" x="414.708" y="298.214" style="fill:#F2F3F3;" width="9.868" height="24.797"/>
		<rect id="XMLID_3431_" x="194.138" y="298.214" style="fill:#B7B7B7;" width="9.868" height="70.953"/>
		<rect id="XMLID_3430_" x="193.955" y="298.214" style="fill:#F2F3F3;" width="9.868" height="24.797"/>
		<rect id="XMLID_3414_" x="203.787" y="301.832" style="fill:#999999;" width="211.214" height="67.377"/>
		<g id="XMLID_2457_">
			<path id="XMLID_3400_" style="fill:#D8D8D8;" d="M439.317,280.692c-0.435-12.809-57.682-23.168-128.248-23.168
				s-127.813,10.359-128.248,23.168l-0.002,3.693c0.338,12.824,57.624,23.201,128.25,23.201c70.626,0,127.912-10.377,128.25-23.201
				h0.006L439.317,280.692z"/>
			<path id="XMLID_3377_" style="fill:#B7B7B7;" d="M311.071,303.461c-69.959,0-126.822-10.178-128.242-22.831
				c-0.012,0.107-0.035,11.324-0.035,11.324c0,12.672,57.637,24.298,128.278,24.298c70.641,0,128.284-12.509,128.284-23.201
				c0-0.005-0.03-12.314-0.042-12.421C437.894,293.283,381.03,303.461,311.071,303.461z"/>
			<path id="XMLID_3388_" style="fill:#F2F3F3;" d="M430.044,280.186c0,9.958-51.955,18.185-118.983,18.185
				s-119.335-7.862-119.335-18.185c0-10.875,52.307-18.185,119.335-18.185S430.044,269.128,430.044,280.186z"/>
		</g>
		<polygon id="XMLID_2446_" style="fill:#BB8574;" points="270.547,237.568 280.532,234.495 282.452,258.049 272.611,258.642 		"/>
		<g id="XMLID_2450_">
			<g>
				<path style="fill:#DEAC91;" d="M299.376,267.352c0.457,0,0.458-0.711,0-0.711C298.918,266.641,298.917,267.352,299.376,267.352
					L299.376,267.352z"/>
			</g>
		</g>
		<path id="XMLID_3380_" style="fill:#B89787;" d="M328.746,182.653"/>
		<path id="XMLID_3328_" style="fill:#DEAC91;" d="M311.589,247.777c0,0,1.523-0.731,2.315,1.096
			c0.792,1.827-0.061,6.426-2.832,7.858C308.3,258.163,311.589,247.777,311.589,247.777z"/>
		<g id="XMLID_3399_">
			<path id="XMLID_3408_" style="fill:#BD8C98;" d="M224.999,268.519l30.153,3.35c0,0,2.558,0.609,4.995,0.487
				c2.437-0.122,7.569-1.081,7.569-1.081s6.564-2.086,2.178-3.305c-4.386-1.218-22.051-4.873-22.051-4.873L224.999,268.519z"/>
			<g id="XMLID_3362_">
				<path id="XMLID_2424_" style="fill:#BB8574;" d="M216.526,246.337c0,0,5.123,0.367,6.833,0.336
					c1.546-0.028,6.385-0.432,6.385-0.432s0.672,5.281-0.251,8.673c-0.153,0.564,4.848,1.296,10.801,3.264
					c4.994,1.651,18.914,5.665,18.914,5.665s0.576,5.376-2.496,5.952c-3.072,0.576-23.618-0.96-28.707-0.96
					c-5.088,0-9.025-2.64-9.985-4.176c-0.96-1.536,0.033-1.923-0.096-3.408C217.731,259.042,216.526,246.337,216.526,246.337z"/>
				<path id="XMLID_2520_" style="fill:#BB8574;" d="M250.877,269.871c0,0,2.415,0.167,2.736,0.492
					c0.322,0.325,2.944,1.778,5.7,1.128s3.514-1.658,5.168-1.333c1.654,0.325,3.524,1.57,3.524,1.57s1.022,0.228,1.77-0.559
					c0.563-0.592,2.11-1.828,2.97-2.743c1.324-1.408,0.129-2.238,0.129-2.238s-2.939-3.501-3.307-3.988
					c-0.368-0.487-1.378-1.408-2.068-1.353c-0.689,0.054-2.527,0.974-3.078,0.974c-0.551,0-5.705,1.414-7.289,0.469
					c-1.045-0.623-1.935,0.23-2.624,0.176C253.82,262.412,250.877,269.871,250.877,269.871z"/>
				<path id="XMLID_3462_" style="fill:#996559;" d="M270.55,268.364c-0.502-0.071-1.083,0.089-1.598,0.057
					c-1.057-0.065-2.069-0.37-3.055-0.735c-1.046-0.387-2.112-0.929-3.236-1.034c-1.421-0.133-2.671,0.532-3.981,0.953
					c-2.291,0.736-4.974,0.572-7.277-0.063c-2.724-0.751-5.173-1.39-8.038-1.424c-2.672-0.032-5.342,0.175-8.01,0.275
					c-2.518,0.095-5.328,0.437-7.779-0.315c-2.052-0.629-3.47-2.184-5.252-3.28c-1.078-0.663-2.3-1.149-3.584-1.113
					c-0.292,0.008-0.56,0.052-0.818,0.112c-0.102,1.063-0.732,1.533,0.099,2.862c0.96,1.536,4.896,4.176,9.985,4.176
					c3.686,0,15.484,0.806,22.875,1.031c0,0.001-0.002,0.005-0.002,0.005s2.415,0.167,2.736,0.492
					c0.322,0.325,2.944,1.778,5.7,1.128s3.514-1.658,5.168-1.333c1.654,0.325,3.524,1.57,3.524,1.57s1.022,0.228,1.77-0.559
					c0.406-0.428,1.324-1.19,2.128-1.925C271.73,268.791,271.3,268.469,270.55,268.364z"/>
				<path id="XMLID_3407_" style="fill:#996559;" d="M229.743,246.24c-0.032,0.256-0.18,4.236-5.249,4.224
					c-5.768-0.014-6.645-4.044-6.645-4.044s2.883,0.231,6.577,0.156C226.081,246.543,228.099,246.385,229.743,246.24z"/>
			</g>
		</g>
		<path id="XMLID_3404_" style="fill:#3A3326;" d="M280.621,221.475c0.147-0.369,0.183-0.772,0.379-1.125
			c0.215-0.388,0.537-0.752,0.822-1.087c0.438-0.515,0.938-0.98,1.338-1.525c0.205-0.279-0.184-0.598-0.449-0.449
			c-1.327,0.743-2.844,2.575-2.508,4.186C280.25,221.706,280.55,221.654,280.621,221.475L280.621,221.475z"/>
		<g id="XMLID_2502_">
			<g id="XMLID_2473_">
				<path id="XMLID_3406_" style="fill:#BD8C98;" d="M364.341,263.189c-1.736,0.183-19.919,1.827-22.021,2.01
					c-2.102,0.183-10.416,1.279-12.701,1.462c-2.284,0.183-5.848,0.091-7.31-0.731c-1.462-0.822-4.934,0.457-6.305,0.183
					c-1.37-0.274-5.208-2.65-4.66-4.294c0.548-1.645,4.203-4.02,4.934-4.02c0.731,0,14.071,1.279,14.071,1.279L364.341,263.189z"/>
				<path id="XMLID_3409_" style="fill:#545152;" d="M321.19,201.676h-0.131c-0.62,0-1.127-0.507-1.127-1.127v-5.717
					c0-0.62,0.507-1.127,1.127-1.127h0.131c0.62,0,1.127,0.507,1.127,1.127v5.717C322.317,201.169,321.81,201.676,321.19,201.676z"
					/>
				<path id="XMLID_3411_" style="fill:#545152;" d="M343.534,201.676h-0.131c-0.62,0-1.127-0.507-1.127-1.127v-5.717
					c0-0.62,0.507-1.127,1.127-1.127h0.131c0.62,0,1.127,0.507,1.127,1.127v5.717C344.661,201.169,344.154,201.676,343.534,201.676z
					"/>
				<path id="XMLID_3402_" style="fill:#272525;" d="M346.385,195.463c0,0-8.628,1.004-14.842,1.004
					c-6.779,0-14.309-1.004-14.309-1.004c-1.9-0.329-2.089-1.812-2.324-3.013c0,0-0.518-2.401-0.518-4.095
					c0-1.342,0.252-3.104,0.518-4.048c0.424-1.506,0.659-2.919,2.324-3.332c0,0,6.902-1.266,14.56-1.329
					c5.9-0.048,14.591,1.329,14.591,1.329c1.461,0.288,1.783,1.284,2.324,3.237c0,0,0.635,2.189,0.635,4.284
					c0,2.565-0.635,4.189-0.635,4.189C348.239,194.098,347.862,195.133,346.385,195.463z"/>
				<path id="XMLID_3403_" style="fill:#272525;" d="M305.402,230.391c0.191-1.695-0.94-22.03-0.94-22.03s0.192-3.672,5.523-6.057
					c6.056-2.709,36.393-3.609,46.098,1.161c0,0,3.544,2.071,3.735,4.613c0.094,1.252-1.053,22.344-1.053,22.344L305.402,230.391z"
					/>
				<path id="XMLID_2507_" style="fill:#DCBFB0;" d="M312.84,257.913c0,0,1.946-18.704,1.444-18.515
					c-0.502,0.188-10.733-0.126-10.733-0.126l-2.385,17.637L312.84,257.913z"/>
				<path id="XMLID_3395_" style="fill:#DCBFB0;" d="M325.061,197.628c0,0,0.914,6.529-1.171,9.146c0,0,2.264,6.626,8.579,6.626
					c6.732,0,8.699-6.793,8.699-6.793s-1.198-5.265-1.198-8.884C339.969,197.722,324.972,197.711,325.061,197.628z"/>
				<g id="XMLID_3394_">
					<path style="fill:#366ED8;" d="M358.919,259.29c-1.086-7.243-1.008-13.939-1.036-15.26c-0.008-0.376,5.034-1.751,11.993-3.143
						c0.314-0.063,0.853-0.108,0.769-0.643c-1.695-10.701-8.385-24.817-8.456-26.232c-0.147-2.946-2.503-2.818-3.058-2.747
						c-0.082,0.011-0.164,0.007-0.245-0.011c0,0-11.437-3.086-16.046-4.997c-0.201-0.084-0.408-1.663-2.04-1.569
						c0,0-1.193,6.527-8.285,6.527c-7.626,0-7.673-6.527-7.673-6.527c-2.071-0.283-1.177,1.365-4.378,2.354
						c-2.035,0.628-12.412,4.347-13.557,4.284c-1.741-0.097-3.39,2.92-3.364,3.377c0.003,0.058,0,0.869-0.012,0.926l-7.284,23.076
						c-0.096,0.481,0.336,0.675,0.805,0.821c2.417,0.75,12.509,3.032,14.556,2.822c0.37-0.038,0.703,0.221,0.758,0.589
						c0.177,1.175-0.777,7.279-0.308,14.289C312.275,260.423,359.159,260.894,358.919,259.29z"/>
				</g>
				<g id="XMLID_3484_">
					<path style="fill:#2953A2;" d="M335.047,245.543c-0.648-6.198-2.914-12.023-6.461-17.132
						c-3.432-4.943-8.067-8.736-8.976-15.017c-0.287-1.984-0.212-3.953,0.036-5.922c-3.465,1.17-11.266,3.908-12.25,3.853
						c-1.741-0.097-3.39,2.92-3.364,3.377c0.003,0.058,0,0.869-0.012,0.926l-7.284,23.076c-0.096,0.481,0.336,0.675,0.805,0.821
						c2.417,0.75,12.509,3.032,14.556,2.822c0.37-0.038,0.703,0.221,0.758,0.589c0.177,1.175-0.777,7.279-0.308,14.289
						c0.111,1.661,12.814,2.586,24.964,2.867C335.315,255.468,335.578,250.61,335.047,245.543z"/>
				</g>
				<path id="XMLID_3381_" style="fill:#B89787;" d="M326.773,199.825c0,0,4.337,5.057,11.423,0.41c0,0-1.088,5.05-5.452,5.05
					C328.38,205.285,326.773,199.825,326.773,199.825z"/>
				<path id="XMLID_3392_" style="fill:#DCBFB0;" d="M345.493,181.745h-2.106c0.473-3.593,0.992-7.528,0.992-7.528
					s-2.916-4.416-11.431-4.416c-8.515,0-11.697,3.6-11.697,3.6l0.839,8.343h-2.239c0,0-1.594,0.606-1.594,2.98
					c0,2.347,1.799,6.072,4.503,4.594l0.59,6.003c0,0,3.038,7.485,7.496,7.485c0.744,0,1.971,0.031,2.842,0.031
					c4.066,0,7.888-6.93,7.888-7.233c0-0.13,0.204-1.584,0.833-6.392c0.029,0.019,0.055,0.04,0.086,0.058
					c2.755,1.616,4.595-2.172,4.595-4.545C347.087,182.35,345.493,181.745,345.493,181.745z"/>
				<path id="XMLID_3391_" style="fill:#B89787;" d="M320.077,183.195c-0.212,0.707,0.189,3.182,2.197,1.97
					c0,0,1.212-1.111,0.556-2.197S320.418,182.059,320.077,183.195z"/>
				<path id="XMLID_3390_" style="fill:#B89787;" d="M345.447,183.195c0.212,0.707-0.189,3.182-2.197,1.97
					c0,0-1.212-1.111-0.555-2.197C343.351,181.882,345.106,182.059,345.447,183.195z"/>
				<path id="XMLID_3386_" style="fill:#3A3326;" d="M338.133,183.41c0,0.621-0.504,1.125-1.125,1.125
					c-0.621,0-1.125-0.504-1.125-1.125s0.504-1.125,1.125-1.125C337.629,182.285,338.133,182.788,338.133,183.41z"/>
				<path id="XMLID_3385_" style="fill:#3A3326;" d="M329.599,183.41c0,0.621-0.504,1.125-1.125,1.125
					c-0.621,0-1.125-0.504-1.125-1.125s0.504-1.125,1.125-1.125C329.095,182.285,329.599,182.788,329.599,183.41z"/>
				<path id="XMLID_3384_" style="fill:#B89787;" d="M332.036,185.051c-0.276,1.099-0.638,2.181-0.993,3.257
					c-0.197,0.599-0.888,1.746-0.475,2.374c0.652,0.992,3.238,0.844,3.657-0.276c0.139-0.372-0.312-0.593-0.602-0.462
					c-0.595,0.268-1.074,0.464-1.755,0.338c-0.711-0.132-0.528-0.422-0.397-1.074c0.272-1.361,0.65-2.701,0.879-4.071
					C332.385,184.935,332.088,184.843,332.036,185.051L332.036,185.051z"/>
				<path id="XMLID_3366_" style="fill:#B89787;" d="M324.379,180.807c0,0,3.031,0,4.518,1.491c0.481,0.482,2.714,0.198,2.503-1.648
					c-0.038-0.329-2.541-0.492-2.693-0.568c-0.151-0.076-2.393,0.025-2.393,0.025L324.379,180.807z"/>
				<path id="XMLID_3355_" style="fill:#3A3326;" d="M331.378,180.571c-0.981-0.719-2.468-1.198-3.786-1.239
					c-1.416-0.044-2.376,0.443-3.446,1.134c-0.238,0.154,0.064,0.433,0.306,0.331c1.853-0.78,3.98-0.392,5.663,0.587
					C330.373,181.535,331.568,180.71,331.378,180.571z"/>
				<g id="XMLID_3469_">
					<path id="XMLID_3364_" style="fill:#FFFFFF;" d="M329.445,187.554h-3.43c-0.938,0-1.706-0.768-1.706-1.706v-0.198
						c0-0.938,0.768-1.706,1.706-1.706h3.43c0.938,0,1.706,0.768,1.706,1.706v0.198
						C331.151,186.787,330.384,187.554,329.445,187.554z"/>
					<path id="XMLID_3428_" style="fill:#3A3326;" d="M329.4,187.92h-3.339c-1.167,0-2.117-0.949-2.117-2.117v-0.106
						c0-1.167,0.95-2.117,2.117-2.117h3.339c1.167,0,2.117,0.95,2.117,2.117v0.106C331.517,186.97,330.567,187.92,329.4,187.92z
						 M326.061,184.311c-0.764,0-1.386,0.622-1.386,1.386v0.106c0,0.764,0.622,1.386,1.386,1.386h3.339
						c0.764,0,1.386-0.622,1.386-1.386v-0.106c0-0.764-0.622-1.386-1.386-1.386H326.061z"/>
				</g>
				<g id="XMLID_3427_">
					<path id="XMLID_3351_" style="fill:#FFFFFF;" d="M338.593,187.554h-3.43c-0.938,0-1.706-0.768-1.706-1.706v-0.198
						c0-0.938,0.767-1.706,1.706-1.706h3.43c0.938,0,1.706,0.768,1.706,1.706v0.198
						C340.299,186.787,339.531,187.554,338.593,187.554z"/>
					<path id="XMLID_3365_" style="fill:#3A3326;" d="M338.548,187.92h-3.339c-1.167,0-2.117-0.949-2.117-2.117v-0.106
						c0-1.167,0.95-2.117,2.117-2.117h3.339c1.167,0,2.117,0.95,2.117,2.117v0.106C340.665,186.97,339.715,187.92,338.548,187.92z
						 M335.209,184.311c-0.764,0-1.386,0.622-1.386,1.386v0.106c0,0.764,0.622,1.386,1.386,1.386h3.339
						c0.764,0,1.386-0.622,1.386-1.386v-0.106c0-0.764-0.622-1.386-1.386-1.386H335.209z"/>
				</g>
				<path id="XMLID_3415_" style="fill:#3A3326;" d="M331.406,186.012l-0.51-0.524c0.027-0.026,0.684-0.648,1.53-0.633
					c0.5,0.008,0.957,0.224,1.358,0.642l-0.528,0.507c-0.265-0.276-0.54-0.413-0.843-0.418c-0.005,0-0.011,0-0.017,0
					C331.859,185.585,331.411,186.007,331.406,186.012z"/>
				<path id="XMLID_3536_" style="fill:#B89787;" d="M330.017,195.485c2.377,0.688,5.948,1.059,7.651-1.2
					c0.286-0.379-0.255-0.823-0.617-0.617c-0.973,0.551-1.803,1.086-2.924,1.289c-1.356,0.246-2.707,0.161-4.069,0.226
					C329.887,195.19,329.846,195.435,330.017,195.485L330.017,195.485z"/>
				<path id="XMLID_2504_" style="fill:#3A3326;" d="M323.321,175.88c0.126-0.251,0.157-3.625,0.157-3.625s-0.53-1.805-1.098-2.213
					c-1.883-1.349-4.519,0.879-4.739,1.883c-0.293,1.339,1.412,3.703,1.852,4.331c0.439,0.628,1.357,5.476,1.357,5.476
					s0.429,0.003,0.925,0.305c-0.683-0.079-1.311,0.227-1.623,0.892c-0.109,0.231-0.09,0.735,0.007,0.529
					c0.353-0.753,1.197-1.032,1.927-0.679c0.528,0.255,0.465,1.558,0.15,1.221c-0.152-0.162-0.489-0.32-0.71-0.222
					c-0.057,0.025-0.068,0.094-0.06,0.147c0.027,0.177,0.266,0.296,0.386,0.417c0.142,0.142,0.216,0.299,0.244,0.497
					c0.003,0.022,0.01,0.043,0.019,0.062c-0.21,0.279-0.41,0.566-0.487,0.885c-0.147,0.614,0.139,0.952,0.707,1.247
					c0.351,0.182,0.326,0.098,0.106-0.169c-0.863-1.047,0.195-1.766,0.424-2.479c0.267-0.832,0.125-1.255-0.031-2.134
					c-0.011-0.06-0.021-0.103-0.032-0.134l-0.486-4.228C322.317,177.889,323.196,176.131,323.321,175.88z"/>
				<path id="XMLID_2487_" style="fill:#3A3326;" d="M342.101,175.88c-0.126-0.251-0.17-3.154-0.17-3.154s-3.562-1.961-3.86-2.307
					c-0.427-0.495,1.74-1.03,2.008-1.255c3.25-2.73,6.46,1.25,7.186,1.977c0.063,0.063-0.897,4.488-1.336,5.115
					c-0.439,0.628-1.357,5.476-1.357,5.476s-0.429,0.003-0.925,0.305c0.683-0.079,1.311,0.227,1.623,0.892
					c0.109,0.231,0.089,0.735-0.007,0.529c-0.353-0.753-1.197-1.032-1.927-0.679c-0.528,0.255-0.465,1.558-0.15,1.221
					c0.152-0.162,0.489-0.32,0.71-0.222c0.057,0.025,0.068,0.094,0.06,0.147c-0.027,0.177-0.266,0.296-0.386,0.417
					c-0.142,0.142-0.216,0.299-0.244,0.497c-0.003,0.022-0.01,0.043-0.019,0.062c0.21,0.279,0.41,0.566,0.487,0.885
					c0.147,0.614-0.139,0.952-0.707,1.247c-0.351,0.182-0.325,0.098-0.106-0.169c0.863-1.047-0.195-1.766-0.424-2.479
					c-0.267-0.832-0.125-1.255,0.031-2.134c0.011-0.06,0.021-0.103,0.032-0.134l0.486-4.228
					C343.105,177.889,342.227,176.131,342.101,175.88z"/>
				<path id="XMLID_2462_" style="fill:#3A3326;" d="M339.797,171.393c-0.188-0.063-2.385,2.73-7.877,2.73
					c-5.274,0-8.756-2.385-8.756-2.385l-1.597-3.696l-1.384-3.459c0,0,6.139-3.472,12.851-1.6c8.552,2.385,8.803,7.249,8.803,7.249
					L339.797,171.393z"/>
				<path id="XMLID_2478_" style="fill:#DCBFB0;" d="M367.356,241.382l-12.668,2.539c0,0,0.397,8.084,0.298,8.722
					c-0.099,0.638-5.015-0.266-11.173,1.915c-5.165,1.829-19.564,4.148-19.564,4.148s-0.596,5.957,2.582,6.595
					c3.178,0.638,24.431,0.213,29.694,0.213c5.264,0,8.541,0.053,9.534-1.649c0.993-1.702,0.76-2.557,0.894-4.202
					C367.151,257.216,367.356,241.382,367.356,241.382z"/>
				<path id="XMLID_3359_" style="fill:#DCBFB0;" d="M330.942,265.598c0,0-2.659-0.232-3.059,0.068
					c-0.4,0.301-3.479,1.442-6.388,0.255s-2.737-2.414-4.59-2.343c-1.853,0.071-4.081,1.114-4.081,1.114s-1.149,0.074-1.846-0.918
					c-0.525-0.746-2.026-2.367-2.826-3.518c-1.232-1.771,0.197-2.475,0.197-2.475s3.734-3.331,4.208-3.802
					c0.474-0.471,1.699-1.188,2.459-1.128c2.164,0.173,8.491,5.269,10.26,4.298c1.525-0.837,3.249,0.848,4.709,0.524
					C330.725,257.511,330.942,265.598,330.942,265.598z"/>
			</g>
			<path id="XMLID_2500_" style="fill:#B89787;" d="M335.586,181.186c0,0,2.835,0.195,3.414,0.713
				c0.579,0.518,2.376,0.031,2.284-0.64c-0.091-0.67-2.924-1.584-3.076-1.553C338.056,179.736,335.586,181.186,335.586,181.186z"/>
			<path id="XMLID_3370_" style="fill:#3A3326;" d="M334.545,180.216c1.013-0.583,2.457-0.863,3.678-0.732
				c1.312,0.142,2.123,0.749,3.004,1.573c0.196,0.183-0.125,0.42-0.332,0.288c-1.589-1.014-3.609-0.908-5.309-0.159
				C335.325,181.301,334.349,180.329,334.545,180.216z"/>
		</g>
		<g id="XMLID_2471_">
			<g id="XMLID_2460_">
				<g id="XMLID_3373_">
					<polygon id="XMLID_3354_" style="fill:#F2F3F3;" points="381.298,359.191 388.79,369.151 367.592,369.151 					"/>
					<path id="XMLID_3353_" style="fill:#272525;" d="M256.484,369.242c0-11.147,3.556-13.771,3.308-16.229
						c-1.798-17.792-9.886-89.031-9.886-89.031s-1.005-9.137,7.036-11.878c4.673-1.593,18.914-4.987,31.462-5.482
						c18.518-0.731,30.579,3.289,30.579,3.289s6.396,1.188,6.122,7.766c-0.129,3.098,0.776,35.652,1.563,62.589
						c0.575,19.683,15.067,48.701,15.067,48.701S256.484,369.333,256.484,369.242z"/>
					<path id="XMLID_3352_" style="fill:#152A51;" d="M304.911,360.562c0,0,5.482,8.406,14.802,8.406
						c9.32,0,16.721-8.863,16.721-8.863l3.289,8.954h26.589c0,0-11.939-35.879-17.97-38.254c-6.03-2.376-27.99,11.909-32.528,18.762
						C312.227,354.984,304.911,360.562,304.911,360.562z"/>
					<path id="XMLID_3356_" style="fill:#0B1529;" d="M332.749,344.085c2.193-4.386-2.193-3.411-2.193-3.411
						s-16.386,20.254-28.995,21.32c0,0-3.185,4.139,0.853,4.02c4.142-0.122,9.503,3.411,17.3,2.954
						c9.304-0.545,16.721-8.863,16.721-8.863S330.556,348.47,332.749,344.085z"/>
					<path id="XMLID_3429_" style="fill:#152A51;" d="M387.572,350.176c-0.975-1.218-7.919-4.63-11.33-8.772
						c-3.411-4.142-19.615-25.462-19.615-25.462s-9.868-5.848-14.376-4.386c-4.508,1.462-23.026,8.893-23.026,8.893l-53.879,17.909
						c2.467,3.198-3.411,19.949,11.787,27.594c12.801,6.439,22.103,1.307,25.28,0.183c7.919-2.802,13.766-15.594,13.766-15.594
						s24.122-18.396,28.995-18.274c2.439,0.061,4.751,0.609,7.675,5.117c2.534,3.907,11.107,26.023,13.349,31.851h2.479
						c4.679-3.437,16.345-12.256,18.284-16.135C386.963,353.1,388.546,351.394,387.572,350.176z"/>
					<path id="XMLID_3349_" style="fill:#F3A953;" d="M318.617,257.952c0,0,6.03,3.746,8.132,7.036
						c1.038,1.624,2.558,11.239,2.376,18.731c-0.084,3.44,0.548,12.061,1.188,12.335c0.64,0.274,1.827-0.183,2.558,1.462
						c0.731,1.645,0.091,3.015,0.274,3.381c0.183,0.365,1.188,2.102,1.188,2.65c0,0.548-0.366,0.914-0.366,0.914
						s-10.508,13.432-12.335,6.853c-1.827-6.579-2.467-2.65-5.117-18.64C313.865,276.683,318.617,257.952,318.617,257.952z"/>
					<path id="XMLID_3348_" style="fill:#DEAC91;" d="M325.47,308.845c0,0,1.163-5.737,6.213-5.939
						c2.284-0.091,2.158,2.313,4.66,3.564c1.827,0.914,3.107-0.274,4.751-0.822c1.645-0.548,2.708-0.842,3.929-0.731
						c1.508,0.137,2.102,0.548,3.107,0.457c1.005-0.091,1.371-0.366,2.376,0.365c1.005,0.731,1.919,1.279,3.107,1.371
						c1.188,0.091,1.279,0,2.193,1.096c0.914,1.096,0.914,0.64,1.827,1.188c0.914,0.548,1.15,0.636,0.822,4.203
						c-0.366,3.975-2.558,7.218-2.558,7.218s-0.274,2.741-1.645,3.152l-1.553,0.32c0,0-1.188,0.822-2.284,0.366
						c-1.096-0.457-1.005-0.457-2.284-0.457s-2.376,0.548-2.924,0c-0.548-0.548-1.645-0.914-2.193-1.096
						c-0.548-0.183-1.462-1.279-1.371-2.01c0.091-0.731-0.183-7.036-0.183-7.036s-2.193-0.914-3.655-0.274
						c-1.462,0.64-12.426,5.391-12.426,5.391L325.47,308.845z"/>
					<path id="XMLID_3346_" style="fill:#272525;" d="M255.936,331.414c0,0-4.02,7.492,5.848,8.041c9.868,0.548,26.498,0,26.498,0
						h13.645c0,0,2.071-0.122,2.071-1.827c0-1.706,0-8.528,0-8.528L255.936,331.414z"/>
					<path id="XMLID_3335_" style="fill:#3A3326;" d="M272.413,217.9c0.944,5.361,1.005,11.604-1.005,14.894
						c-2.01,3.289-3.888,4.894-4.294,8.619c-0.396,3.624,4.929,3.298,4.051,5.695c-0.792,2.162-5.543,4.812-6.731,7.675
						c-1.261,3.039,0.883,6.031,3.381,5.482c0,0,8.497-4.325,11.376-7.157l3.548-2.041l2.193-17.178l-3.959-10.295
						C280.972,223.596,271.967,215.369,272.413,217.9z"/>
					<path id="XMLID_3336_" style="fill:#3A3326;" d="M307.234,217.625c0,0,0.371,9.722,1.454,11.149
						c1.34,1.767,3.886,2.783,5.056,5.239c1.218,2.558,2.376,5.3,0,8.894c-2.21,3.343,1.645,3.594,1.645,3.594
						s3.594,0.914,3.716,3.594c0.122,2.68-1.279,3.655-1.279,3.655l-11.878-0.305c0,0-7.675-3.411-7.858-3.655
						c-0.183-0.244-2.132-6.213-2.071-6.701c0.061-0.487,4.812-9.198,4.812-9.198S303.944,218.356,307.234,217.625z"/>
					<path id="XMLID_3342_" style="fill:#F3A953;" d="M255.022,277.322c0,0-0.183-10.234,6.031-14.071
						c6.213-3.838,22.295-11.878,22.295-11.878s16.264-3.838,28.508,2.193c0,0,7.327,1.894,10.051,9.685
						c2.819,8.065,1.074,22.282,3.289,37.28c2.132,14.437,5.022,16.126,0.982,18.274c-6.586,3.503-58.059,16.081-58.059,16.081
						L255.022,277.322z"/>
					<path id="XMLID_3300_" style="fill:#366ED8;" d="M279.19,253.109l-2.102,1.462c0,0,5.993,14.141,7.173,31.645
						c1.462,21.685,0.244,34.234,0.244,34.234s18.579,3.198,33.107-0.914c3.914-1.108-7.55-15.47-6.031-27.686
						c2.193-17.635,0.917-22.443-3.381-28.782c-3.655-5.391-3.198-12.152-7.858-12.426
						C293.41,250.234,279.19,253.109,279.19,253.109z"/>
					<path id="XMLID_3307_" style="fill:#366ED8;" d="M279.936,246.987c-0.074,0.669-0.426,5.848-0.792,6.335
						c-0.365,0.487,1.896,6.439,13.949,4.325c10.416-1.827,8.224-4.934,8.224-4.934s-1.175-4.482-1.706-6.274
						c-0.487-1.645-1.888-1.584-9.868-1.279C281.764,245.464,280.058,245.891,279.936,246.987z"/>
					<path id="XMLID_3293_" style="fill:#DEAC91;" d="M279.652,229.534c-0.002,1.169,2.843,9.717,1.868,17.818
						c-0.122,1.34,3.803,3.967,9.868,3.289c7.15-0.799,6.624-3.404,6.624-3.404s-0.32-2.079-0.046-5.094
						C298.241,239.129,279.652,229.534,279.652,229.534z"/>
					<path id="XMLID_3314_" style="fill:#DEAC91;" d="M278.976,220.642c0,0-3.639-2.041-4.705,0.152
						c-0.785,1.616-0.76,5.641,1.032,7.614c1.77,1.949,4.572,3.274,6.014,0.183C282.157,226.793,278.976,220.642,278.976,220.642z"
						/>
					<path id="XMLID_3345_" style="fill:#BB8574;" d="M296.825,245.068c-3.381,0.091-9.731-0.503-12.655-6.487
						c0,0-0.495,7.195,6.167,8.406C295.865,247.992,296.825,245.068,296.825,245.068z"/>
					<path id="XMLID_3286_" style="fill:#DEAC91;" d="M278.239,220.27c-0.017,0.304,0.638,12.072,4.832,18.04
						c3.387,4.821,8.114,6.835,13.307,6.94c3.8,0.077,7.906-7.091,8.278-10.373c0.372-3.283,1.982-13.425,1.047-18.561
						c-1.091-5.994-6.913-11.837-15.368-10.85C281.88,206.452,278.625,213.271,278.239,220.27z"/>
					<path id="XMLID_3321_" style="fill:#3A3326;" d="M285.845,205.931c0,0,16.531,8.557,20.201,14.344c0,0,0.358-1.796,1.18-1.247
						c0.072,0.048,0.564-2.236,0.67-3.228c0.365-3.411-1.523-16.828-11.802-18.244c-11.692-1.611-14.619,4.203-14.619,4.203
						L285.845,205.931z"/>
					<path id="XMLID_3329_" style="fill:#3A3326;" d="M288.967,208.52c0,0-1.902,10.976-10.668,11.855c0,0-3.084-1.53-4.135,0.571
						c0,0-4.218-3.746-1.477-12.64c1.203-3.904,4.791-7.298,9.015-6.762C290.931,202.718,288.967,208.52,288.967,208.52z"/>
					<path id="XMLID_3422_" style="fill:#0B1529;" d="M387.206,352.734c-3.655,4.142-9.746,5.239-12.914,5.36
						c-3.168,0.122-16.203-21.807-20.589-24.853c-4.386-3.046-7.553-0.975-7.553-0.975s0,0.017,0,0.048
						c2.136,0.197,4.241,1.089,6.823,5.069c2.535,3.907,11.11,26.028,13.349,31.851h2.479c4.679-3.437,16.345-12.256,18.284-16.135
						c0,0,0.275-0.299,0.526-0.733C387.49,352.446,387.356,352.564,387.206,352.734z"/>
					<path id="XMLID_3417_" style="fill:#BF9D69;" d="M328.291,295.683c-1.051,0.277-2.122,0.663-3.121,1.182
						c-0.029-0.01-0.056-0.023-0.082-0.036c-0.061-0.035-0.116-0.075-0.171-0.115c-0.927-0.845-0.184-4.236-0.263-5.227
						c-0.079-0.985-0.432-1.798-0.901-2.648c-1.203-2.183-0.876-4.782-2.128-6.959c-0.247-0.429-0.69,0.025-0.495,0.512
						c1.434,3.584-0.647,7.478-0.017,11.208c0.13,0.767,0.474,1.448,0.635,2.202c0.188,0.878-0.137,1.422-0.296,2.252
						c-0.165,0.862,0.106,1.529,0.66,2.079c0.022,0.049,0.043,0.098,0.073,0.151c0.271,0.473,0.778,0.807,1.116,1.226
						c0.507,0.628,0.822,1.357,1.158,2.082c0.121,0.261,0.509,0.071,0.449-0.189c-0.31-1.331-0.917-2.469-1.519-3.655
						c1.1-1.54,3.561-2.688,5.192-3.382C328.977,296.198,328.689,295.579,328.291,295.683z M323.613,297.483
						c-0.023-0.04-0.052-0.074-0.087-0.103c0.007-0.051,0.013-0.103,0.018-0.154c0.048,0.068,0.101,0.132,0.159,0.191
						C323.672,297.439,323.642,297.461,323.613,297.483z"/>
					<g id="XMLID_3389_">
						<path id="XMLID_3393_" style="fill:#2953A2;" d="M298.741,253.834c-1.23,0.756-2.42,1.468-3.662,2.046
							c-0.075-0.465-0.194-0.929-0.283-1.375c-0.177-0.89-0.36-1.779-0.541-2.669c-0.072-0.354-0.68-0.281-0.639,0.087
							c0.1,0.9,0.197,1.801,0.301,2.701c0.063,0.544,0.089,1.122,0.195,1.671c-1.058,0.417-2.167,0.726-3.383,0.871
							c-0.143,0.017-0.287,0.023-0.431,0.037c0.111-1.534-0.298-3.254-0.558-4.718c-0.057-0.322-0.593-0.25-0.572,0.077
							c0.098,1.507-0.049,3.191,0.203,4.702c-2.47,0.087-4.947-0.376-7.25-1.27c-0.3-0.117-0.474,0.349-0.214,0.506
							c5.063,3.066,13.244,2.65,17.344-2.007C299.551,254.15,299.166,253.572,298.741,253.834z"/>
						<path id="XMLID_3451_" style="fill:#2953A2;" d="M283.032,254.064c0.343-0.653,0.172-1.594,0.077-2.295
							c-0.036-0.266-0.448-0.189-0.454,0.061c-0.009,0.379-0.037,0.757-0.069,1.134c-0.03,0.347-0.107,0.694-0.029,1.037
							C282.605,254.216,282.929,254.259,283.032,254.064z"/>
						<path id="XMLID_3452_" style="fill:#2953A2;" d="M285.555,255.214c0.104,0.302,0.624,0.375,0.688,0
							c0.089-0.516-0.035-1.055-0.093-1.573c-0.051-0.455-0.039-0.976-0.296-1.368c-0.074-0.113-0.28-0.146-0.345,0
							c-0.194,0.433-0.117,0.903-0.095,1.368C285.438,254.154,285.388,254.727,285.555,255.214z"/>
						<path id="XMLID_3453_" style="fill:#2953A2;" d="M297.241,252.933c0.15,0.372,0.685,0.332,0.712-0.096
							c0.023-0.369-0.109-0.747-0.189-1.106c-0.085-0.388-0.164-0.778-0.244-1.167c-0.067-0.322-0.623-0.256-0.583,0.079
							c0.047,0.394,0.096,0.787,0.138,1.182C297.114,252.19,297.103,252.591,297.241,252.933z"/>
					</g>
					<path id="XMLID_3495_" style="fill:#2953A2;" d="M312.691,274.806c-0.63-4.589-2.394-9.673-5.345-13.3
						c-0.769-1.701-1.628-3.772-2.313-5.518c-0.094-0.24,0.041,0.521,0.084,0.777c0.546,3.28,1.469,5.99,2.764,9.031
						c0.916,2.15,1.593,4.354,1.964,6.655c0.895,5.545,1.659,11.039,1.218,16.69c-0.107,1.919,0.393,3.86,0.485,3.264
						c0.197-1.276,0.332-2.555,0.419-3.835C312.551,283.992,313.323,279.409,312.691,274.806z"/>
					<path id="XMLID_3488_" style="fill:#2953A2;" d="M311.855,298.582c-0.061,0.426-1.035,9.381,0.061,12.122
						c1.096,2.741,1.949,5.361,1.462,6.213c-0.487,0.853-1.157,3.168-2.68,3.472c0.244-0.122,6.465,0.24,7.431-0.914
						c0.944-1.127,1.299-1.985,0.305-3.655C314.688,309.531,311.855,298.582,311.855,298.582z"/>
					<path id="XMLID_3344_" style="fill:#DEAC91;" d="M265.743,333.546c0,0,2.848,2.75,8.284,2.619
						c10.112-0.244,19.949-3.807,26.224-5.025c0,0,0.914,1.157,4.751,0c3.838-1.157,3.289-0.944,4.599-0.609
						c2.39,0.611,3.838,5.208,3.838,5.208s0.853,1.462,1.888,1.645c1.036,0.183,1.462-0.914,1.462-0.914s1.218,1.645,2.68,0.792
						c1.462-0.853,0.975-2.741,0.975-2.741s1.157,1.523,2.254,0.426c1.096-1.096,0.609-3.107,0.609-3.107s0.426,1.035,1.949-0.061
						c1.523-1.096-0.305-6.944-0.305-6.944l-3.777-4.325c0,0-2.285-1.184-3.35-1.218c-1.888-0.061-6.152,0.746-8.711,1.249
						c-1.972,0.387-4.934,0.457-5.97,0.457s-1.523,0.67-3.289,0.487c-1.767-0.183-16.264-2.376-16.264-2.376
						s-13.036-6.64-17.482,2.193C261.662,330.135,265.743,333.546,265.743,333.546z"/>
					<path id="XMLID_3343_" style="fill:#F3A953;" d="M283.896,319.125c0,0-0.244-5.682-1.462-5.935
						c-1.218-0.253-3.289-0.253-3.411-0.759c-0.122-0.506-1.096-12.018-1.34-15.561c-0.244-3.542-2.203-27.21-13.889-27.832
						c-9.503-0.506-9.624,15.054-9.624,15.054s-0.853,21.38-1.462,22.772c-0.609,1.392-1.706,6.009-0.883,7.432
						c0.822,1.423,2.345,2.815,1.98,3.258c-0.366,0.443-2.132,4.048-1.949,5.44c0.183,1.392,0.453,3.496,0.244,4.491
						c-0.365,1.736,0.853,2.741,2.193,2.741s1.332,2.227,2.193,2.832c3.381,2.376,5.747,1.474,7.249,1.764
						c2.619,0.506,2.193-2.151,2.193-2.151s-1.91-10.147,6.396-13.685C278.901,316.186,283.896,319.125,283.896,319.125z"/>
					<path id="XMLID_2454_" style="fill:#BF9D69;" d="M284.596,319.247c0,0-0.632-0.051-1.157-0.244
						c-0.457-0.167,0.251-4.013-1.896-6.617c-1.015-1.231-3.312-2.262-4.226-3.267c-0.914-1.005-1.279-1.919-1.919-1.919
						c-0.64,0-3.198-0.822-2.284-2.833c0.914-2.01,1.322-4.971,1.005-6.213c-0.258-1.011,0.452-1.999,0.594-3.107
						c0.16-1.246-0.228-2.558-0.228-2.558s1.279,0.183,1.279,3.655s-0.64,6.122,1.462,7.127c2.102,1.005,7.686,3.747,7.736,4.751
						C285.083,310.46,284.596,319.247,284.596,319.247z"/>
					<g id="XMLID_2517_">
						<path id="XMLID_3371_" style="fill:#BF9D69;" d="M279.943,308.449c-1.114-1.604-3.115-1.887-5.043-1.756
							c0.217-0.353,0.335-0.699,0.379-1.137c0.018-0.177-0.053-0.309-0.163-0.393c0.23-0.348-0.042-0.856-0.473-0.862
							c-0.869-0.013-1.887-0.172-2.089,0.954c-0.122,0.684,0.223,1.032-0.38,1.574c-0.169,0.152-0.366,0.283-0.578,0.397
							c-2.936,0.69-5.704,1.992-7.967,4.004c-0.252,0.225,0.07,0.615,0.353,0.457c1.758-0.983,3.571-1.873,5.479-2.509
							c0.451-0.106,0.906-0.201,1.362-0.284c1.074-0.197,2.72-0.701,3.813-0.438c0.64,0.154,1.145,0.773,1.764,1.006
							c0.843,0.316,1.745,0.249,2.623,0.155c0.175-0.019,0.335-0.114,0.45-0.245C279.902,309.307,280.262,308.909,279.943,308.449z"
							/>
						<path id="XMLID_3419_" style="fill:#BF9D69;" d="M267.622,304.813c0.551,0.093,1.111,0.075,1.669,0.09
							c0.545,0.015,1.122,0.157,1.606-0.133c0.331-0.198,0.31-0.655,0-0.858c-0.473-0.309-1.068-0.168-1.606-0.112
							c-0.561,0.059-1.145,0.125-1.669,0.341C267.346,304.255,267.24,304.749,267.622,304.813z"/>
						<path id="XMLID_3447_" style="fill:#BF9D69;" d="M272.209,315.107c-6,0.692-10.72,6.765-10.006,12.745
							c0.071,0.596,0.93,0.629,0.954,0c0.23-6.104,3.385-10.33,9.099-12.398C272.429,315.392,272.421,315.082,272.209,315.107z"/>
					</g>
				</g>
				<g id="XMLID_3396_">
					<path id="XMLID_3449_" style="fill:#BB8574;" d="M330.297,312.394c-3.189,0.228-3.822-5.291-3.892-6.013
						c-0.715,1.293-0.951,2.449-0.951,2.449l-0.091,10.325c0,0,10.965-4.751,12.426-5.391c1.462-0.64,3.655,0.274,3.655,0.274
						s-0.061-1.523-0.792-2.498C339.922,310.566,333.708,312.15,330.297,312.394z"/>
					<path id="XMLID_3450_" style="fill:#BB8574;" d="M267.769,322.627c-3.684,6.243-1.858,11.086-1.858,11.086
						s2.665,2.568,8.102,2.437c10.112-0.244,19.949-3.807,26.224-5.025c0,0,0.914,1.157,4.751,0
						c3.838-1.157,3.289-0.944,4.599-0.609c1.513,0.387,2.648,2.37,3.277,3.774c0.047-0.094,0.073-0.15,0.073-0.15
						s-1.279-6.67-3.655-6.67c-2.376,0-3.563,0.274-6.761-0.274c-3.198-0.548-4.66,0.64-8.497,1.279
						c-3.838,0.64-17.173,3.219-20.833,0.548c-3.381-2.467-1.858-8.315,2.071-10.995
						C275.349,317.968,269.961,318.912,267.769,322.627z"/>
				</g>
			</g>
			<path id="XMLID_3472_" style="fill:#3A3326;" d="M280.946,220.665c2.024,0.136,3.788-1.555,4.868-3.098
				c1.671-2.389,2.362-5.527,3.005-8.317c0.104-0.45-0.525-0.611-0.683-0.188c-0.876,2.339-1.204,4.846-2.332,7.1
				c-1.139,2.275-2.731,3.289-4.884,4.408C280.872,220.594,280.899,220.662,280.946,220.665L280.946,220.665z"/>
			<path id="XMLID_3490_" style="fill:#3A3326;" d="M278.171,218.55c-0.38,0.687-0.253,1.227,0.173,1.883
				c0.837,1.29,1.808,2.177,1.937,3.836c0.177,2.286-0.837,4.007,1.323,5.689c0.178,0.139,0.434-0.103,0.254-0.254
				c-2.091-1.764-0.55-3.859-0.839-6.074c-0.097-0.743-0.349-1.461-0.729-2.107c-0.549-0.93-1.9-1.713-1.852-2.901
				C278.443,218.48,278.238,218.428,278.171,218.55L278.171,218.55z"/>
			<path id="XMLID_3539_" style="fill:#3A3326;" d="M281.556,226.39c0.474-1.228,0.935-2.279,0.299-3.54
				c-0.414-0.82-1.124-1.368-1.173-2.373c-0.043-0.877,0.491-1.674,0.52-2.564c0.015-0.458-0.661-0.8-0.973-0.403
				c-0.69,0.878-1.061,1.748-1.078,2.872c-0.008,0.558,0.891,0.71,0.998,0.135c0.109-0.589,0.104-0.683-0.176-1.215
				c-0.21-0.401-0.785-0.267-0.913,0.119c-0.197,0.595-0.192,0.626-0.27,1.247c0.319-0.043,0.637-0.086,0.956-0.129
				c-0.025-0.079-0.051-0.158-0.076-0.237c-0.123-0.383-0.676-0.398-0.793,0c-0.023,0.079-0.046,0.158-0.069,0.237
				c-0.181,0.616,0.848,0.865,0.939,0.259c0.021-0.388,0.113-0.759,0.277-1.111c-0.304,0.04-0.608,0.079-0.913,0.119
				c0.019,0.147,0.039,0.294,0.058,0.441c0.332,0.045,0.665,0.09,0.998,0.135c0.029-0.846,0.265-1.465,0.868-2.066
				c-0.324-0.134-0.648-0.269-0.973-0.403c-0.08,1.339-0.843,2.281-0.325,3.645c0.161,0.423,0.436,0.718,0.671,1.092
				c0.885,1.412,1.325,2.06,0.911,3.675C281.279,226.481,281.5,226.535,281.556,226.39L281.556,226.39z"/>
		</g>
		<path id="XMLID_2477_" style="fill:#B89787;" d="M354.686,243.91c0,0,3.35,2.985,6.944,2.376c3.594-0.609,4.995-4.812,4.812-4.751
			C366.26,241.595,354.686,243.91,354.686,243.91z"/>
		<path id="XMLID_3514_" style="fill:#3A3326;" d="M288.907,222.923c0.008-0.025-0.478-0.24-1.41-0.358
			c-0.083-0.065-0.758-0.536-0.838-0.699c-0.111-0.225-0.235-0.178-0.223,0.068c0.011,0.211,0.08,0.41,0.193,0.586
			c-0.041,0.003-0.081,0.005-0.122,0.007c-0.108-0.024-0.912-0.087-1.268-0.628c-0.134-0.204-0.234-0.052-0.175,0.147
			c0.053,0.176,0.305,0.453,0.418,0.594c-0.258-0.025-0.747-0.098-1.017-0.173c-0.188-0.052-0.28,0.076-0.115,0.216
			c0.568,0.482,1.121,0.754,1.883,0.766c0.212,0.003,0.444-0.035,0.684-0.087c-0.102,0.162-0.175,0.346-0.202,0.549
			c-0.101,0.753,0.594,1.131,1.353,1.101c0.737-0.029,1.03-0.449,1.375-0.736C290.144,223.695,289.645,223.275,288.907,222.923z"/>
		<path id="XMLID_3513_" style="fill:#3A3326;" d="M298.478,222.995c-0.008-0.025,0.478-0.24,1.41-0.358
			c0.083-0.065,0.758-0.536,0.838-0.699c0.111-0.225,0.235-0.178,0.223,0.069c-0.01,0.211-0.08,0.41-0.193,0.586
			c0.041,0.003,0.081,0.005,0.122,0.007c0.108-0.024,0.912-0.087,1.268-0.628c0.134-0.204,0.234-0.052,0.175,0.147
			c-0.053,0.177-0.305,0.453-0.418,0.594c0.258-0.025,0.747-0.098,1.017-0.173c0.188-0.052,0.28,0.076,0.115,0.216
			c-0.567,0.482-1.121,0.754-1.883,0.766c-0.211,0.003-0.444-0.035-0.684-0.087c0.102,0.162,0.175,0.346,0.202,0.549
			c0.101,0.753-0.594,1.131-1.353,1.101c-0.737-0.029-1.03-0.449-1.375-0.736C297.242,223.766,297.74,223.347,298.478,222.995z"/>
		<path id="XMLID_3512_" style="fill:#3A3326;" d="M305.228,220.255c-2.208-0.578-4.535-0.149-6.629,0.8
			c-0.392,0.178-1.429-1.096-1.157-1.243c2.511-1.363,5.576-1.421,7.956,0.074C305.695,220.072,305.228,220.255,305.228,220.255z"/>
		<path id="XMLID_3511_" style="fill:#4E352D;" d="M296.168,228.244c0.078,0.687,0.571,1.837,0.388,2.502
			c-0.317,1.15-1.922,0.817-2.853,0.719c-0.259-0.027-0.4,0.339-0.142,0.452c0.992,0.435,3.049,0.484,3.541-0.661
			C297.317,230.754,296.813,228.593,296.168,228.244z"/>
		<path id="XMLID_3510_" style="fill:#4E352D;" d="M291.108,236.7c1.775,1.75,5.525,1.893,6.948-0.596
			c0.094-0.165-0.069-0.386-0.177-0.231c-0.772,1.111-2.426,1.34-3.451,1.365c-1.165,0.028-2.149-0.439-3.272-0.713
			C291.076,236.506,291.044,236.638,291.108,236.7L291.108,236.7z"/>
		<path id="XMLID_3509_" style="fill:#3A3326;" d="M284.078,220.231c2.397-0.578,4.924-0.149,7.198,0.8
			c0.426,0.178,1.552-1.096,1.257-1.243c-2.727-1.363-6.055-1.421-8.639,0.074C283.571,220.048,284.078,220.231,284.078,220.231z"/>
		<g id="XMLID_3470_">
			<path id="XMLID_3468_" style="fill:#8F8B88;" d="M334.64,275.19c0.355-0.081,34.569,0,34.569,0s0,6.296-0.222,6.296
				c-0.222,0-20.184-1.054-20.794-1.054C347.582,280.433,334.64,275.19,334.64,275.19z"/>
			<path id="XMLID_3465_" style="fill:#ABA7A5;" d="M334.64,278.453l18.036,4.991c0.686,0,1.248-0.561,1.248-1.248v-0.767
				c0-0.686-0.561-1.248-1.248-1.248l-18.036-4.991c-0.686,0-1.248,0.561-1.248,1.248v0.767
				C333.392,277.892,333.953,278.453,334.64,278.453z"/>
			<path id="XMLID_3456_" style="fill:#CCC9C8;" d="M352.773,283.465h45.096c0.761,0,1.384-0.663,1.384-1.472l3.392-34.259
				c0-0.81-0.623-1.472-1.384-1.472h-45.096c-0.761,0-1.384,0.663-1.384,1.472l-3.392,34.259
				C351.389,282.803,352.012,283.465,352.773,283.465z"/>
			<path id="XMLID_3445_" style="fill:#FFFFFF;" d="M378.823,263.7l-2.06-3.027c0.53-0.35,1.165-0.554,1.848-0.554
				c1.856,0,3.361,1.505,3.361,3.361c0,1.856-1.505,3.361-3.361,3.361c-1.693,0-3.092-1.251-3.326-2.879L378.823,263.7z"/>
		</g>
		<path id="XMLID_3439_" style="fill:#F3A953;" d="M269.93,407.487c0.027-0.671,0.044-1.345,0.044-2.023
			c0-27.452-22.254-49.706-49.706-49.706s-49.706,22.254-49.706,49.706c0,0.678,0.018,1.352,0.044,2.023H269.93z"/>
		<g id="XMLID_3361_">
			<path id="XMLID_3457_" style="fill:#152A51;" d="M107.972,369.249c-0.294,3.818,0,6.461-0.147,7.048
				c-0.147,0.587-0.734,1.909-1.468,3.965c-0.734,2.056,0.147,1.909,0.147,3.818c0,1.909-0.294,1.175-0.441,4.258
				c-0.038,0.809-1.264,16.052-1.434,18.953h39.169c0.358-0.619,1.808-14.036,2.206-14.989c0.734-1.762-0.734-2.496-1.028-4.258
				c-0.294-1.762,0.587-0.881,1.322-1.909c0.734-1.028,1.946-3.689,4.735-11.472c2.79-7.782,4.185-12.279,4.185-12.279
				s0.404-1.799,1.652,0.33c0.789,1.347,5.433,19.603,6.167,21.659c0.734,2.056-0.013,6.499-0.393,8.42
				c-0.49,2.475,2.315,4.995,3.821,14.863h37.417c-0.755-7.187-1.499-28.433-1.86-35.251c-1.208-22.756-6.241-46.298-6.241-46.915
				c0-1.028-1.615-3.377-1.615-3.377l0.147-4.112l-82.082-0.147c0,0-2.203,4.258-2.35,5.727c-0.147,1.468-0.587,1.175-3.23,9.398
				c-2.643,8.223,0.881,16.005,1.028,20.851C107.825,358.677,108.266,365.431,107.972,369.249z"/>
			<path id="XMLID_2476_" style="fill:#0B1529;" d="M117.076,322.113c1.175,0,69.307-2.496,73.272-2.496s-5.032,8.546-17.914,12.922
				c-15.565,5.286-42.216,6.609-51.43,1.616S117.076,322.113,117.076,322.113z"/>
			<path id="XMLID_2437_" style="fill:#EBC0AE;" d="M131.22,148.781c0,0,2.361,22.489-0.169,26.031
				c-1.704,2.386,7.927,22.602,24.288,21.589c0,0,8.771-0.506,9.277-8.096c0.301-4.51-4.161-12.313-2.586-23.557
				c1.574-11.245-14.618-9.67-14.618-9.67L131.22,148.781z"/>
			<path id="XMLID_2059_" style="fill:#C48C7D;" d="M159.689,169.783c0,0-8.492,1.473-12.787,0.102
				c-7.63-2.435-10.462-5.347-10.462-5.347s2.892,5.244,8.109,8.109C149.766,175.512,155.495,176.33,159.689,169.783z"/>
			<path id="XMLID_3418_" style="fill:#C48C7D;" d="M162.045,176.047c0,0-1.101,9.911-11.123,10.242
				c-8.302,0.274-10.793-4.075-10.793-4.075s7.158,9.471,12.555,9.471C158.08,191.685,164.908,182.655,162.045,176.047z"/>
			<path id="XMLID_2065_" style="fill:#EBC0AE;" d="M170.104,130.075c-1.073-0.76-2.335-0.664-3.212,0.101
				c-3.785,1.31-3.147,11.114-2.103,13.62c0.761,1.827,2.175,3.216,4.098,1.725c0.713-0.553,1.092-1.464,1.294-2.321
				c0.463-1.956,0.153-3.837,0.818-5.799C171.764,135.141,172.469,131.751,170.104,130.075z"/>
			<path id="XMLID_1489_" style="fill:#EBC0AE;" d="M209.217,246.126c0,0,2.276,5.139,2.423,9.031c0,0,3.818,0.661,5.653,1.615
				c1.835,0.954,18.208-0.771,18.208-0.771s-0.424,3.468,3.855,5.286c4.405,1.872,3.249,3.744,3.249,3.744
				s-22.073,12.08-24.999,13.215c-3.689,1.432-7.874,1.652-10.003,1.725c-2.129,0.074-2.349,0.734-3.597,0.074
				c-1.248-0.661-1.762-1.542-2.276-2.57c-0.514-1.028-3.157-3.23-4.846-7.562c-0.9-2.308-6.681-16.299-6.681-16.299
				L209.217,246.126z"/>
			<path id="XMLID_2431_" style="fill:#366ED8;" d="M213.922,244.093l-11.414-44.082c0,0-1.156-4.606-2.07-5.988
				c-0.913-1.382-4.146-2.073-4.146-2.073l-33.001-15.68c0,0,0.489,7.83-3.277,12.729l-0.638-1.214c0,0-2.649,2.649-2.764,2.073
				c-0.115-0.576-1.267-0.461-1.267-0.461c-2.073,0.461-6.621,0.173-6.621,0.173l-3.575,1.493
				c-8.713-4.624-14.809-16.636-14.809-16.636s-36.358,15.304-37.429,15.812c-0.879,0.417-1.827-0.019-4.568,0.902
				c-2.74,0.921-3.28,5.857-3.28,5.857l-21.513,49.349c0,0-0.251,3.826,5.215,6.678c5.066,2.643,17.485,9.912,24.889,9.912
				c0,0,7.999-14.096,8.15-14.096c0,0,5.513,21.924,5.947,46.034c0.355,19.733-3.275,21.46-2.643,22.026
				c12.857,11.504,53.28,6.764,61.22,5.462c21.073-3.454,27.418-1.417,28.421-3.158c7.669-13.308-3.3-33.581,1.766-67.28
				C196.574,251.532,213.922,244.093,213.922,244.093z"/>
			<path id="XMLID_2425_" style="fill:#2953A2;" d="M156.774,190.246c0,0-0.506,4.301,0.253,5.144
				c0.759,0.843,6.578,6.747,7.843,6.747s0.422-8.349,0.422-8.349l-4.723-5.229L156.774,190.246z"/>
			<path id="XMLID_2070_" style="fill:#F3A953;" d="M156.942,189.908c0,0,6.859-5.678,5.06-14.337l-0.394-4.921l1.546,0.508
				c0,0,1.237,0.45,1.462,1.687c0.225,1.237,4.048,13.156,4.048,13.156s-0.34,15.664-3.12,16.22
				C163.014,202.727,156.942,189.908,156.942,189.908z"/>
			<path id="XMLID_2053_" style="fill:#2953A2;" d="M148.931,189.655c0,0-0.337,3.458,0.337,3.879
				c0.675,0.422,3.289,0.843,4.47,0.422c0,0,0.506,2.193-1.518,2.446c-2.024,0.253-4.217-0.337-5.229,0.59
				c-1.012,0.928-7.168,6.072-7.168,6.072s1.349-8.602,2.108-9.277C142.69,193.113,148.931,189.655,148.931,189.655z"/>
			<path id="XMLID_2052_" style="fill:#F3A953;" d="M132.094,169.935l-4.13,0.661c0,0-2.368,0.385-3.029,2.863
				c-0.307,1.152-1.727,4.727-1.727,4.727l13.578,24.963c0,0,2.193,1.518,4.048-1.349c1.855-2.867,8.096-12.144,8.096-12.144
				S134.287,179.549,132.094,169.935z"/>
			<path id="XMLID_2025_" style="fill:#C48C7D;" d="M166.253,132.446c0,0-0.079,2.097-0.079,2.813c0,0.716-0.472,1.074-0.708,1.688
				s0.236,3.261,0.236,3.261s2.667,0.312,3.061-1.274c0.393-1.585,1.085-3.013,0.792-4.442
				C169.241,132.958,168.454,131.679,166.253,132.446z"/>
			<path id="XMLID_1488_" style="fill:#C48C7D;" d="M98.354,343.846c0,0,1.982,9.691,2.056,9.912
				c0.073,0.22,8.223,7.122,8.223,7.122s0.147-4.185-0.734-5.8c-0.881-1.615-3.744-7.268-4.185-7.709
				C103.273,346.93,98.354,343.846,98.354,343.846z"/>
			<path id="XMLID_1491_" style="fill:#EBC0AE;" d="M273.165,226.302c-0.624,0.734-3.671,3.157-3.671,3.157l-10.995,10.558
				c-0.046-0.045-0.092-0.09-0.138-0.135c1.596-1.839,6.784-9.884,7.089-10.008c0.339-0.137,1.426-2.339,0.407-3.371
				c-1.018-1.032-2.784,1.101-3.056,1.238c-0.272,0.138-3.735,4.472-4.278,4.884c-0.446,0.339-3.451,3.872-4.515,5.13
				c-0.805,0.707-1.843,1.826-2.209,2.349c-0.514,0.734-2.643,2.276-2.643,2.276c0.22-2.423-2.056-4.258-2.937-4.479
				c-0.881-0.22-2.937,0.954-1.982,1.762c0.955,0.808,0,2.863-0.367,4.111c-0.367,1.248-3.304,3.451-4.405,4.479
				c-1.101,1.028-1.223,3.295-1.982,5.066c-1.101,2.57-3.029,2.735-3.029,2.735s0.679,4.167,1.266,5.928
				c0.587,1.762,3.671,4.552,6.883,3.047c3.212-1.505,4.317-1.631,9.122-2.643c1.665-0.35,8.112-5.229,11.123-8.024
				c0.086-0.057,0.173-0.115,0.266-0.181c3.166-2.258,3.992-3.524,4.02-3.992c0.028-0.468-0.275-1.404-1.129-1.872
				c-0.854-0.468-1.239,0.248-1.542,0.165c-0.245-0.067-0.059-0.33,0.022-0.428c0.801-0.661,1.793-1.607,2.098-1.912
				c0.468-0.468,0.303-1.9-0.496-2.836s-1.817-0.248-1.817-0.248s-1.211,0.826-1.927,0.909c-0.512,0.059-0.447-0.247-0.368-0.427
				c1.615-1.694,6.269-7.585,6.269-7.585s5.213-6.057,6.131-7.819C275.294,226.376,273.789,225.568,273.165,226.302z"/>
			<g id="XMLID_350_">
				<path id="XMLID_2064_" style="fill:#3A3326;" d="M167.193,110.163c-0.334-0.16-0.744,0.138-0.74,0.447
					c-0.002,0-0.004-0.001-0.006-0.001c-2.925-0.013-3.084,2.819-2.901,5.043c0.369,4.472,1.347,8.855,2.582,13.159
					c0.212,0.737,1.365,0.987,1.735,0.227c1.009-2.074,1.957-4.169,2.812-6.311c0.704-1.764,1.819-3.807,1.887-5.721
					C172.672,113.927,169.708,111.369,167.193,110.163z"/>
				<g id="XMLID_2063_">
					<path style="fill:#EBC0AE;" d="M128.7,134.441c0.046-0.935-1.202-1.954-2.239-2.3c-1.541-0.515-3.318-0.565-4.589,0.448
						c-1.11,0.884-2.465,8.243,0.053,11.6c3.649,4.864,7.843,5.273,9.173,3.534"/>
				</g>
				<g id="XMLID_2062_">
					<path style="fill:#EBC0AE;" d="M166.619,117.539c1.521,3.333,0.99,7.196,1.485,10.793c0.194,1.41,0.371,2.921-0.316,4.188
						c-0.336,0.62-0.871,1.16-1.024,1.84c-0.16,0.711,0.127,1.435,0.362,2.127c1.799,5.312,0.648,11.071-0.662,16.508
						c-0.945,3.921-1.965,7.826-3.061,11.712c-0.482,1.707-1.05,3.52-2.486,4.655c-1.301,1.028-3.082,1.307-4.776,1.413
						c-4.584,0.287-9.235-0.418-13.492-2.046c-1.597-0.611-3.165-1.367-4.397-2.502c-1.205-1.111-2.029-2.53-2.774-3.954
						c-3.196-6.111-7.33-25.931-8.114-32.704v-10.844c0,0,9.209-7.689,23.233-8.084
						C164.619,110.249,165.897,115.958,166.619,117.539z"/>
				</g>
				<path id="XMLID_2058_" style="fill:#C48C7D;" d="M127.467,134.373c0,0-2.532-0.307-3.222,0.844
					c-0.69,1.151-0.767,4.296,0.767,5.294c1.535,0.997,2.941,2.66,3.325,2.046c0.384-0.614,0.781-3.571,0.454-4.803
					C128.464,136.521,127.467,134.373,127.467,134.373z"/>
				<path id="XMLID_1875_" style="fill:#3A3326;" d="M129.183,141.609c0.2-0.52,0.354-1.088,0.478-1.636
					c0.187-0.823,0.305-1.665,0.215-2.511c-0.135-1.276-0.629-2.181-1.69-2.867c-1.443-0.932-2.945-0.881-4.245,0.062
					c-0.595,0.431-0.47,0.745,0,0.532c1.571-0.711,3.716,0.066,4.344,1.808c0.226,0.625,0.214,1.314,0.095,2.004
					c-0.643-0.808-2.03-1.014-2.901-0.495c-0.253,0.151-0.129,0.314,0.155,0.276c0.73-0.096,1.065-0.028,1.528,0.22
					c0.459,0.246,1.032,1.065,1.06,1.087c-0.152,0.519-0.239,0.706-0.262,1.184c-0.041,0.868,0.138,1.666,1.005,2.505
					C129.634,144.427,128.549,143.258,129.183,141.609z"/>
				<path id="XMLID_2049_" style="fill:#3A3326;" d="M155.798,142.093c0.564,2.771,2.019,7.305-3.102,5.876
					c-0.948-0.264-0.933,0.371-0.1,0.889c2.219,1.38,5.913,0.307,5.692-3.095c-0.279-4.306-2.446-4.408-2.647-14.152
					c-0.008-0.376-0.503-1.153-0.476-0.777C155.166,130.835,154.415,135.293,155.798,142.093z"/>
				<path id="XMLID_2048_" style="fill:#3A3326;" d="M150.695,146.915c-0.419-0.988-2.242-1.115-2.868-0.246
					c-0.363,0.504-0.428,1.202,0.325,1.611c0.739,0.401,1.643-0.981,2.229-0.751C150.958,147.754,150.695,146.915,150.695,146.915z"
					/>
				<path id="XMLID_2047_" style="fill:#FFFFFF;" d="M158.851,154.515c-2.829,0.926-8.188,2.019-13.996-0.223
					c-1.035-0.4-1.966,0.755-1.374,1.694c1.336,2.122,4.07,4.593,9.524,4.378c4.381-0.173,6.353-2.415,7.236-4.255
					C160.68,155.193,159.816,154.199,158.851,154.515z"/>
				<path id="XMLID_2032_" style="fill:#3A3326;" d="M162.639,133.303c0,1.258-1.02,2.279-2.279,2.279
					c-1.258,0-2.279-1.02-2.279-2.279c0-1.259,1.02-2.279,2.279-2.279C161.619,131.024,162.639,132.044,162.639,133.303z"/>
				<path id="XMLID_1486_" style="fill:#3A3326;" d="M171.965,97.471c-7.473,2.847-7.672,0.512-12.378-2.609
					c-4.294-2.847-14.782-4.552-23.821,2.052c-2.873,2.099-4.124,3.671-4.49,7.232c-2.077-0.303-4.647,0.425-5.703,2.327
					c-3.16-0.548-5.831,0.767-7.059,4.399c-0.178,0.528,0.097,1.222,0.409,0.716c0.908-1.47,2.549-2.625,4.105-2.733
					c-2.997,1.683-4.532,5.916-2.304,9.059c0.685,0.966,1.73,1.47,2.5,2.331c1.594,1.783,1.133,4.111,1.095,6.301
					c-0.058,3.344,0.474,3.91,2.869,5.401c0.479,1.563,1.026,3.076,1.651,4.504c0.249,0.567,0.955,0.706,0.878,0.195
					c-0.153-1.013-0.251-2.615-0.39-3.636c0.192-2.128,0.133-4.717,1.617-6.148c0.929-0.895,2.043-1.221,2.821-2.401
					c1.577-2.394,1.341-5.072,0.794-7.689c1.763,1.653,3.995,2.846,6.224,2.909c0.133,0.004,0.176-0.18,0.066-0.245
					c-1.612-0.956-3.255-1.706-4.689-2.946c-0.154-0.133-0.3-0.27-0.444-0.407c7.747,3.016,16.477,4.837,24.524,2.118
					c1.429-0.483,3.013-1.054,4.126-2.108c1.654-1.567,2.631-3.935,3.98-5.746c2.347-3.151,5.655-6.452,5.766-10.369
					C174.215,96.346,173.039,97.062,171.965,97.471z"/>
				<path id="XMLID_1976_" style="fill:#C48C7D;" d="M146.719,127.535c-3.011-0.399-5.924-0.961-8.738,0.457
					c-0.546,0.275-0.583,0.858-0.335,1.293c-0.61,0.088-1.195,0.195-1.724,0.293c-0.464,0.087-0.193,0.573,0.23,0.602
					c1.977,0.135,4.703-0.3,6.701,0.23c1.253,0.332,2.941,1.33,3.708,2.634c0.602,1.023,2.324-1.082,3.028-2.643
					C150.695,127.948,148.707,127.799,146.719,127.535z"/>
				<path id="XMLID_2453_" style="fill:#3A3326;" d="M135.947,129.983c2.212-0.942,4.416-1.853,6.853-2.059
					c2.211-0.187,4.34,0.612,6.422,1.291c0.766,0.25,1.386-1.837,1.152-1.97c-4.057-2.318-11.809-2.07-14.861,2.171
					c-0.197,0.274,0.364,0.739,0.641,0.62L135.947,129.983z"/>
				<path id="XMLID_1833_" style="fill:#3A3326;" d="M144.321,133.492c0,1.259-1.02,2.279-2.279,2.279
					c-1.259,0-2.279-1.02-2.279-2.279c0-1.258,1.02-2.279,2.279-2.279C143.301,131.214,144.321,132.234,144.321,133.492z"/>
				<path id="XMLID_1819_" style="fill:#C48C7D;" d="M156.995,128.981c0.026-0.077,0.751,1.327,2.336,0.79
					c1.585-0.537,4.603,0.205,5.345,1.176c0.742,0.972,2.531-1.761,2.479-2.017c-0.051-0.256-2.019-1.845-2.428-1.973
					c-0.409-0.128-2.608-0.435-2.608-0.435l-2.762,0.895L156.995,128.981z"/>
				<path id="XMLID_1487_" style="fill:#3A3326;" d="M167.16,128.752c-1.223-4.054-7.571-3.692-9.864-1.398
					c-0.25,0.25-0.396,1.766-0.376,1.753c2.079-1.277,8.202-2.704,9.768-0.15C166.88,129.27,167.271,129.121,167.16,128.752z"/>
			</g>
			<path id="XMLID_3448_" style="fill:#C48C7D;" d="M208.629,246.364c-0.11,0.551,0.716,3.469-1.156,4.901
				c-1.872,1.432-7.216,5.157-8.094,9.086c-0.936,4.185-4.515,5.721-4.075,1.762c0.495-4.46,1.101-10.352,1.101-10.352
				L208.629,246.364z"/>
			<path id="XMLID_347_" style="fill:#EBC0AE;" d="M67.471,252.273l-5.019,12.228c0,0-3.744,5.973-1.835,8.471
				c1.909,2.498,3.451,3.084,4.332,5.426c0.881,2.342,33.479,41.676,34.066,43.862c0,0,3.818-0.312,6.167-3.748
				c2.349-3.435,3.084-6.402,3.084-6.402s-11.799-14.421-14.831-25.825c-1.982-7.456-5.91-16.674-7.819-18.392l3.512-5.601
				l-11.056-4.751L67.471,252.273z"/>
			<path id="XMLID_1484_" style="fill:#EBC0AE;" d="M97.987,320.646c1.909,5.139-0.918,15.418-0.918,15.418s-0.532,3.473-0.11,4.846
				c0.587,1.909,4.919,9.911,4.919,9.911s7.261,10.974,7.525,11.343c0.551,0.771,1.689-0.771,1.358-2.753
				c-0.33-1.982-5.066-19.456-5.066-19.456s1.762-4.185,3.524-6.608c1.762-2.423,3.524-1.321,3.524-1.321s4.365,3.062,8.296,2.129
				c4.332-1.028,3.341-3.267,3.341-3.267s-2.313-1.432-2.753-1.542s-3.561-2.863-3.891-3.854c-0.33-0.991-1.918-7.067-2.203-7.268
				c-1.762-1.248-7.268-6.112-7.268-6.112l-5.47,1.596C102.796,313.707,97.252,318.667,97.987,320.646z"/>
			<path id="XMLID_3460_" style="fill:#C48C7D;" d="M114.286,328.795c-1.835-3.047-6.938,0.33-8.113-3.084
				c-1.028-2.57-2.282-7.555-3.854-8.37c-1.781-0.923-4.592,1.683-4.451,3.172c0.025,0.034,0.052,0.072,0.076,0.105
				c0.003,0.009,0.004,0.018,0.007,0.027c1.909,5.139-0.918,15.418-0.918,15.418s-0.533,3.473-0.11,4.846
				c0.587,1.909,4.919,9.911,4.919,9.911s7.261,10.974,7.525,11.343c0.551,0.771,1.689-0.771,1.358-2.753
				s-5.066-19.456-5.066-19.456s1.762-4.185,3.524-6.608c1.762-2.423,3.524-1.321,3.524-1.321s4.365,3.062,8.296,2.129
				c2.308-0.548,3.105-1.439,3.345-2.153C122.876,331.438,118.122,335.162,114.286,328.795z"/>
			<path id="XMLID_3446_" style="fill:#C48C7D;" d="M70.051,253.505c0,0,2.718,11.248,8.544,11.729
				c2.671,0.22,4.323,0.964,4.323,0.964s2.01,0.165,3.249-1.79c1.325-2.09,1.845-2.643,1.707-2.698
				C81.245,259.058,70.051,253.505,70.051,253.505z"/>
		</g>
	</g>
</g>
<g id="DESIGNED_BY_FREEPIK">
	<g id="XMLID_1_">
		<g id="XMLID_319_">
			<g id="XMLID_338_">
				<path id="XMLID_346_" style="fill:#1D262D;" d="M260.104,465.465c-0.432,0.443-0.803,0.931-1.108,1.453l-0.465-0.241
					c-0.067-0.298-0.349-0.503-0.659-0.466c-0.331,0.039-0.568,0.339-0.529,0.67s0.339,0.568,0.67,0.529
					c0.065-0.008,0.127-0.026,0.184-0.052l0.451,0.234c-0.251,0.554-0.433,1.139-0.539,1.744l0.746,0.132
					c0.23-1.306,0.85-2.507,1.792-3.473L260.104,465.465z"/>
				<path id="XMLID_345_" style="fill:#1D262D;" d="M265.592,463.163c-0.171,0-0.341,0.006-0.51,0.017l-0.074-0.626
					c0.188-0.149,0.296-0.389,0.266-0.645c-0.046-0.393-0.402-0.674-0.795-0.628s-0.674,0.402-0.628,0.795
					c0.03,0.254,0.189,0.461,0.405,0.564l0.073,0.624c-0.714,0.116-1.403,0.332-2.06,0.646l0.327,0.684
					c0.934-0.447,1.942-0.673,2.995-0.673c0.496,0,0.993,0.053,1.475,0.158l0.161-0.741
					C266.693,463.222,266.142,463.163,265.592,463.163z"/>
				<path id="XMLID_344_" style="fill:#1D262D;" d="M272.194,465.711c0.331-0.04,0.566-0.341,0.525-0.672
					c-0.04-0.331-0.341-0.566-0.672-0.526c-0.309,0.038-0.535,0.304-0.53,0.609l-0.416,0.363c-0.418-0.43-0.89-0.813-1.408-1.139
					l-0.404,0.641c1.134,0.715,2.021,1.726,2.563,2.925l0.691-0.313c-0.251-0.554-0.568-1.072-0.942-1.545l0.402-0.351
					C272.065,465.716,272.129,465.719,272.194,465.711z"/>
				<path id="XMLID_343_" style="fill:#1D262D;" d="M265.044,473.372c-0.386,0.023-0.775,0.035-1.157,0.035
					c-0.88,0-1.733-0.061-2.478-0.179c-0.39-0.062-0.846-0.155-1.27-0.292c1.046,1.861,3.069,3.125,5.388,3.125
					c2.855,0,5.262-1.916,5.95-4.504c-0.682,0.449-1.505,0.825-2.459,1.123C267.839,473.047,266.464,473.286,265.044,473.372z"/>
				<path id="XMLID_339_" style="fill:#1D262D;" d="M265.592,464.68c-3.352,0-6.08,2.666-6.08,5.943
					c0,0.426,0.046,0.849,0.137,1.261c0.674,0.483,2.706,0.89,5.348,0.731c2.879-0.173,5.297-0.957,6.672-2.159
					c-0.005-0.195-0.021-0.39-0.045-0.582C271.244,466.913,268.65,464.68,265.592,464.68z M263.432,471.194
					c-1.02,0-1.85-0.83-1.85-1.85c0-1.02,0.83-1.85,1.85-1.85c1.02,0,1.85,0.83,1.85,1.85
					C265.282,470.365,264.452,471.194,263.432,471.194z M268.17,470.286c-0.75,0-1.36-0.61-1.36-1.36s0.61-1.361,1.36-1.361
					c0.75,0,1.361,0.61,1.361,1.361S268.92,470.286,268.17,470.286z"/>
			</g>
			<path id="XMLID_336_" style="fill:#1D262D;" d="M281.595,466.547c-0.295-0.116-0.806-0.309-1.382-0.237
				c-0.551,0.069-0.844,0.341-0.844,1.007v0.866h2.228v1.717h-2.228v5.455h-1.932v-5.455h-1.34v-1.717h1.34v-0.888
				c0-1.68,0.896-2.783,2.568-2.783c0.642,0,1.157,0.122,1.59,0.308L281.595,466.547z"/>
			<path id="XMLID_334_" style="fill:#1D262D;" d="M286.298,469.879c-0.177-0.03-0.358-0.046-0.526-0.046
				c-0.896,0-1.51,0.548-1.51,1.614v3.908h-1.932v-7.172h1.873v0.785c0.451-0.673,1.14-0.977,2.021-0.977
				c0.414,0,0.848,0.128,1.094,0.337L286.298,469.879z"/>
			<path id="XMLID_331_" style="fill:#1D262D;" d="M293.965,471.757c0,0.222-0.015,0.489-0.037,0.651h-5.085
				c0.207,1.036,0.933,1.488,1.843,1.488c0.622,0,1.295-0.252,1.813-0.688l1.132,1.243c-0.814,0.748-1.85,1.088-3.057,1.088
				c-2.198,0-3.723-1.495-3.723-3.753c0-2.258,1.48-3.797,3.627-3.797C292.544,467.99,293.958,469.522,293.965,471.757z
				 M288.851,471.091h3.175c-0.177-0.918-0.733-1.436-1.562-1.436C289.554,469.655,289.021,470.203,288.851,471.091z"/>
			<path id="XMLID_328_" style="fill:#1D262D;" d="M301.618,471.757c0,0.222-0.015,0.489-0.037,0.651h-5.085
				c0.207,1.036,0.932,1.488,1.843,1.488c0.622,0,1.295-0.252,1.813-0.688l1.132,1.243c-0.814,0.748-1.85,1.088-3.057,1.088
				c-2.198,0-3.723-1.495-3.723-3.753c0-2.258,1.48-3.797,3.627-3.797C300.197,467.99,301.611,469.522,301.618,471.757z
				 M296.504,471.091h3.175c-0.178-0.918-0.733-1.436-1.562-1.436C297.207,469.655,296.674,470.203,296.504,471.091z"/>
			<path id="XMLID_325_" style="fill:#1D262D;" d="M309.964,471.764c0,2.154-1.495,3.775-3.471,3.775
				c-0.962,0-1.643-0.378-2.109-0.933v3.708h-1.924v-10.133h1.887v0.792c0.466-0.585,1.155-0.984,2.139-0.984
				C308.469,467.99,309.964,469.61,309.964,471.764z M304.287,471.764c0,1.132,0.747,1.976,1.843,1.976
				c1.14,0,1.85-0.881,1.85-1.976c0-1.095-0.71-1.976-1.85-1.976C305.035,469.788,304.287,470.632,304.287,471.764z"/>
			<path id="XMLID_322_" style="fill:#1D262D;" d="M313.068,465.836c0,0.696-0.54,1.229-1.236,1.229
				c-0.696,0-1.229-0.533-1.229-1.229c0-0.696,0.533-1.243,1.229-1.243C312.527,464.592,313.068,465.14,313.068,465.836z
				 M312.809,475.354h-1.932v-7.172h1.932V475.354z"/>
			<path id="XMLID_320_" style="fill:#1D262D;" d="M316.032,470.736l2.702-2.554h2.368l-3.479,3.375l3.501,3.797h-2.376
				l-2.716-2.901v2.901H314.1v-10.658h1.932V470.736z"/>
		</g>
		<g id="XMLID_2_">
			<path id="XMLID_3_" style="fill:#1D262D;" d="M184.412,475.289v-1.055c-0.527,0.718-1.391,1.23-2.388,1.23
				c-1.846,0-3.149-1.406-3.149-3.706c0-2.256,1.289-3.721,3.149-3.721c0.952,0,1.816,0.469,2.388,1.245v-3.765h1.099v9.77H184.412z
				 M184.412,473.37v-3.208c-0.395-0.615-1.245-1.143-2.124-1.143c-1.421,0-2.27,1.172-2.27,2.739c0,1.567,0.85,2.724,2.27,2.724
				C183.168,474.483,184.017,473.986,184.412,473.37z"/>
			<path id="XMLID_6_" style="fill:#1D262D;" d="M186.932,471.744c0-2.051,1.465-3.706,3.486-3.706c2.139,0,3.398,1.67,3.398,3.794
				v0.279h-5.727c0.088,1.333,1.025,2.446,2.549,2.446c0.805,0,1.626-0.322,2.182-0.894l0.527,0.718
				c-0.703,0.703-1.655,1.084-2.812,1.084C188.44,475.465,186.932,473.956,186.932,471.744z M190.403,468.947
				c-1.509,0-2.256,1.274-2.314,2.358h4.643C192.718,470.25,192.015,468.947,190.403,468.947z"/>
			<path id="XMLID_9_" style="fill:#1D262D;" d="M194.607,474.351l0.571-0.791c0.469,0.542,1.362,1.011,2.329,1.011
				c1.084,0,1.67-0.513,1.67-1.216c0-1.714-4.38-0.659-4.38-3.281c0-1.098,0.952-2.036,2.636-2.036c1.201,0,2.051,0.454,2.622,1.026
				l-0.513,0.762c-0.424-0.513-1.201-0.894-2.109-0.894c-0.967,0-1.567,0.483-1.567,1.113c0,1.552,4.38,0.527,4.38,3.281
				c0,1.187-0.952,2.138-2.783,2.138C196.306,475.465,195.325,475.113,194.607,474.351z"/>
			<path id="XMLID_11_" style="fill:#1D262D;" d="M201.477,466.471c0-0.41,0.337-0.747,0.732-0.747c0.41,0,0.747,0.337,0.747,0.747
				c0,0.41-0.337,0.732-0.747,0.732C201.814,467.203,201.477,466.881,201.477,466.471z M201.667,475.289v-7.075h1.099v7.075H201.667
				z"/>
			<path id="XMLID_14_" style="fill:#1D262D;" d="M204.582,477.105l0.556-0.82c0.586,0.703,1.289,0.967,2.3,0.967
				c1.172,0,2.27-0.571,2.27-2.124v-1.011c-0.513,0.718-1.377,1.26-2.373,1.26c-1.845,0-3.149-1.377-3.149-3.662
				c0-2.27,1.289-3.677,3.149-3.677c0.952,0,1.802,0.469,2.373,1.245v-1.069h1.098v6.87c0,2.344-1.641,3.076-3.369,3.076
				C206.237,478.16,205.417,477.926,204.582,477.105z M209.709,473.253v-3.091c-0.381-0.615-1.23-1.143-2.109-1.143
				c-1.421,0-2.27,1.128-2.27,2.695c0,1.553,0.849,2.695,2.27,2.695C208.478,474.41,209.328,473.868,209.709,473.253z"/>
			<path id="XMLID_17_" style="fill:#1D262D;" d="M217.413,475.289v-4.629c0-1.245-0.63-1.641-1.582-1.641
				c-0.865,0-1.685,0.527-2.095,1.099v5.17h-1.099v-7.075h1.099v1.025c0.498-0.586,1.465-1.201,2.519-1.201
				c1.48,0,2.256,0.747,2.256,2.285v4.966H217.413z"/>
			<path id="XMLID_19_" style="fill:#1D262D;" d="M219.932,471.744c0-2.051,1.465-3.706,3.486-3.706c2.139,0,3.398,1.67,3.398,3.794
				v0.279h-5.727c0.088,1.333,1.025,2.446,2.549,2.446c0.806,0,1.626-0.322,2.183-0.894l0.527,0.718
				c-0.703,0.703-1.655,1.084-2.812,1.084C221.441,475.465,219.932,473.956,219.932,471.744z M223.404,468.947
				c-1.509,0-2.256,1.274-2.314,2.358h4.643C225.718,470.25,225.015,468.947,223.404,468.947z"/>
			<path id="XMLID_22_" style="fill:#1D262D;" d="M233.35,475.289v-1.055c-0.527,0.718-1.392,1.23-2.388,1.23
				c-1.846,0-3.149-1.406-3.149-3.706c0-2.256,1.289-3.721,3.149-3.721c0.952,0,1.817,0.469,2.388,1.245v-3.765h1.098v9.77H233.35z
				 M233.35,473.37v-3.208c-0.396-0.615-1.245-1.143-2.124-1.143c-1.421,0-2.27,1.172-2.27,2.739c0,1.567,0.849,2.724,2.27,2.724
				C232.105,474.483,232.954,473.986,233.35,473.37z"/>
			<path id="XMLID_25_" style="fill:#1D262D;" d="M239.692,475.289v-9.77h1.098v3.765c0.572-0.776,1.421-1.245,2.388-1.245
				c1.845,0,3.149,1.465,3.149,3.721c0,2.299-1.304,3.706-3.149,3.706c-0.996,0-1.86-0.513-2.388-1.23v1.055H239.692z
				 M242.9,474.483c1.436,0,2.285-1.157,2.285-2.724c0-1.568-0.85-2.739-2.285-2.739c-0.864,0-1.728,0.527-2.109,1.143v3.208
				C241.171,473.986,242.036,474.483,242.9,474.483z"/>
			<path id="XMLID_28_" style="fill:#1D262D;" d="M247.528,477.061c0.161,0.073,0.425,0.117,0.601,0.117
				c0.483,0,0.805-0.161,1.055-0.747l0.469-1.069l-2.959-7.148h1.187l2.358,5.8l2.344-5.8h1.201l-3.545,8.51
				c-0.425,1.025-1.143,1.421-2.08,1.435c-0.234,0-0.601-0.044-0.805-0.103L247.528,477.061z"/>
		</g>
	</g>
</g>
</svg>
